solid part2
   facet normal -0.000000e+00 -1.000000e+00 -0.000000e+00
      outer loop
         vertex 2.300000e+02 0.000000e+00 2.200000e+02
         vertex 1.000001e+01 0.000000e+00 2.200000e+02
         vertex 2.300000e+02 0.000000e+00 0.000000e+00
      endloop
   endfacet
   facet normal 0.000000e+00 -1.000000e+00 0.000000e+00
      outer loop
         vertex 2.300000e+02 0.000000e+00 0.000000e+00
         vertex 1.000001e+01 0.000000e+00 2.200000e+02
         vertex 1.000001e+01 0.000000e+00 0.000000e+00
      endloop
   endfacet
   facet normal 0.000000e+00 -1.000000e+00 0.000000e+00
      outer loop
         vertex 0.000000e+00 1.829207e+02 4.999994e+00
         vertex 1.000001e+01 1.829207e+02 4.999994e+00
         vertex 0.000000e+00 1.829207e+02 2.150000e+02
      endloop
   endfacet
   facet normal 0.000000e+00 -1.000000e+00 0.000000e+00
      outer loop
         vertex 0.000000e+00 1.829207e+02 2.150000e+02
         vertex 1.000001e+01 1.829207e+02 4.999994e+00
         vertex 1.000001e+01 1.829207e+02 2.150000e+02
      endloop
   endfacet
   facet normal 0.000000e+00 0.000000e+00 1.000000e+00
      outer loop
         vertex 0.000000e+00 1.829207e+02 2.150000e+02
         vertex 1.000001e+01 1.829207e+02 2.150000e+02
         vertex 0.000000e+00 2.308414e+02 2.150000e+02
      endloop
   endfacet
   facet normal -0.000000e+00 0.000000e+00 1.000000e+00
      outer loop
         vertex 0.000000e+00 2.308414e+02 2.150000e+02
         vertex 1.000001e+01 1.829207e+02 2.150000e+02
         vertex 1.000001e+01 2.308414e+02 2.150000e+02
      endloop
   endfacet
   facet normal -0.000000e+00 1.000000e+00 0.000000e+00
      outer loop
         vertex 0.000000e+00 2.308414e+02 2.150000e+02
         vertex 1.000001e+01 2.308414e+02 2.150000e+02
         vertex 0.000000e+00 2.308414e+02 4.999994e+00
      endloop
   endfacet
   facet normal 0.000000e+00 1.000000e+00 0.000000e+00
      outer loop
         vertex 0.000000e+00 2.308414e+02 4.999994e+00
         vertex 1.000001e+01 2.308414e+02 2.150000e+02
         vertex 1.000001e+01 2.308414e+02 4.999994e+00
      endloop
   endfacet
   facet normal 0.000000e+00 0.000000e+00 -1.000000e+00
      outer loop
         vertex 0.000000e+00 2.308414e+02 4.999994e+00
         vertex 1.000001e+01 2.308414e+02 4.999994e+00
         vertex 0.000000e+00 1.829207e+02 4.999994e+00
      endloop
   endfacet
   facet normal 0.000000e+00 0.000000e+00 -1.000000e+00
      outer loop
         vertex 0.000000e+00 1.829207e+02 4.999994e+00
         vertex 1.000001e+01 2.308414e+02 4.999994e+00
         vertex 1.000001e+01 1.829207e+02 4.999994e+00
      endloop
   endfacet
   facet normal 0.000000e+00 -1.000000e+00 0.000000e+00
      outer loop
         vertex 0.000000e+00 1.250000e+02 4.999994e+00
         vertex 1.000001e+01 1.250000e+02 4.999994e+00
         vertex 0.000000e+00 1.250000e+02 2.150000e+02
      endloop
   endfacet
   facet normal 0.000000e+00 -1.000000e+00 0.000000e+00
      outer loop
         vertex 0.000000e+00 1.250000e+02 2.150000e+02
         vertex 1.000001e+01 1.250000e+02 4.999994e+00
         vertex 1.000001e+01 1.250000e+02 2.150000e+02
      endloop
   endfacet
   facet normal 0.000000e+00 0.000000e+00 1.000000e+00
      outer loop
         vertex 0.000000e+00 1.250000e+02 2.150000e+02
         vertex 1.000001e+01 1.250000e+02 2.150000e+02
         vertex 0.000000e+00 1.729207e+02 2.150000e+02
      endloop
   endfacet
   facet normal -0.000000e+00 0.000000e+00 1.000000e+00
      outer loop
         vertex 0.000000e+00 1.729207e+02 2.150000e+02
         vertex 1.000001e+01 1.250000e+02 2.150000e+02
         vertex 1.000001e+01 1.729207e+02 2.150000e+02
      endloop
   endfacet
   facet normal -0.000000e+00 1.000000e+00 0.000000e+00
      outer loop
         vertex 0.000000e+00 1.729207e+02 2.150000e+02
         vertex 1.000001e+01 1.729207e+02 2.150000e+02
         vertex 0.000000e+00 1.729207e+02 4.999994e+00
      endloop
   endfacet
   facet normal 0.000000e+00 1.000000e+00 0.000000e+00
      outer loop
         vertex 0.000000e+00 1.729207e+02 4.999994e+00
         vertex 1.000001e+01 1.729207e+02 2.150000e+02
         vertex 1.000001e+01 1.729207e+02 4.999994e+00
      endloop
   endfacet
   facet normal 0.000000e+00 0.000000e+00 -1.000000e+00
      outer loop
         vertex 0.000000e+00 1.729207e+02 4.999994e+00
         vertex 1.000001e+01 1.729207e+02 4.999994e+00
         vertex 0.000000e+00 1.250000e+02 4.999994e+00
      endloop
   endfacet
   facet normal 0.000000e+00 0.000000e+00 -1.000000e+00
      outer loop
         vertex 0.000000e+00 1.250000e+02 4.999994e+00
         vertex 1.000001e+01 1.729207e+02 4.999994e+00
         vertex 1.000001e+01 1.250000e+02 4.999994e+00
      endloop
   endfacet
   facet normal 0.000000e+00 -1.000000e+00 0.000000e+00
      outer loop
         vertex 0.000000e+00 6.707930e+01 4.999994e+00
         vertex 1.000001e+01 6.707930e+01 4.999994e+00
         vertex 0.000000e+00 6.707930e+01 2.150000e+02
      endloop
   endfacet
   facet normal 0.000000e+00 -1.000000e+00 0.000000e+00
      outer loop
         vertex 0.000000e+00 6.707930e+01 2.150000e+02
         vertex 1.000001e+01 6.707930e+01 4.999994e+00
         vertex 1.000001e+01 6.707930e+01 2.150000e+02
      endloop
   endfacet
   facet normal 0.000000e+00 0.000000e+00 1.000000e+00
      outer loop
         vertex 0.000000e+00 6.707930e+01 2.150000e+02
         vertex 1.000001e+01 6.707930e+01 2.150000e+02
         vertex 0.000000e+00 1.150000e+02 2.150000e+02
      endloop
   endfacet
   facet normal -0.000000e+00 0.000000e+00 1.000000e+00
      outer loop
         vertex 0.000000e+00 1.150000e+02 2.150000e+02
         vertex 1.000001e+01 6.707930e+01 2.150000e+02
         vertex 1.000001e+01 1.150000e+02 2.150000e+02
      endloop
   endfacet
   facet normal -0.000000e+00 1.000000e+00 0.000000e+00
      outer loop
         vertex 0.000000e+00 1.150000e+02 2.150000e+02
         vertex 1.000001e+01 1.150000e+02 2.150000e+02
         vertex 0.000000e+00 1.150000e+02 4.999994e+00
      endloop
   endfacet
   facet normal 0.000000e+00 1.000000e+00 0.000000e+00
      outer loop
         vertex 0.000000e+00 1.150000e+02 4.999994e+00
         vertex 1.000001e+01 1.150000e+02 2.150000e+02
         vertex 1.000001e+01 1.150000e+02 4.999994e+00
      endloop
   endfacet
   facet normal 0.000000e+00 0.000000e+00 -1.000000e+00
      outer loop
         vertex 0.000000e+00 1.150000e+02 4.999994e+00
         vertex 1.000001e+01 1.150000e+02 4.999994e+00
         vertex 0.000000e+00 6.707930e+01 4.999994e+00
      endloop
   endfacet
   facet normal 0.000000e+00 0.000000e+00 -1.000000e+00
      outer loop
         vertex 0.000000e+00 6.707930e+01 4.999994e+00
         vertex 1.000001e+01 1.150000e+02 4.999994e+00
         vertex 1.000001e+01 6.707930e+01 4.999994e+00
      endloop
   endfacet
   facet normal 0.000000e+00 -1.000000e+00 0.000000e+00
      outer loop
         vertex 0.000000e+00 9.158603e+00 4.999994e+00
         vertex 1.000001e+01 9.158603e+00 4.999994e+00
         vertex 0.000000e+00 9.158603e+00 2.150000e+02
      endloop
   endfacet
   facet normal 0.000000e+00 -1.000000e+00 0.000000e+00
      outer loop
         vertex 0.000000e+00 9.158603e+00 2.150000e+02
         vertex 1.000001e+01 9.158603e+00 4.999994e+00
         vertex 1.000001e+01 9.158603e+00 2.150000e+02
      endloop
   endfacet
   facet normal 0.000000e+00 0.000000e+00 1.000000e+00
      outer loop
         vertex 0.000000e+00 9.158603e+00 2.150000e+02
         vertex 1.000001e+01 9.158603e+00 2.150000e+02
         vertex 0.000000e+00 5.707930e+01 2.150000e+02
      endloop
   endfacet
   facet normal -0.000000e+00 0.000000e+00 1.000000e+00
      outer loop
         vertex 0.000000e+00 5.707930e+01 2.150000e+02
         vertex 1.000001e+01 9.158603e+00 2.150000e+02
         vertex 1.000001e+01 5.707930e+01 2.150000e+02
      endloop
   endfacet
   facet normal -0.000000e+00 1.000000e+00 0.000000e+00
      outer loop
         vertex 0.000000e+00 5.707930e+01 2.150000e+02
         vertex 1.000001e+01 5.707930e+01 2.150000e+02
         vertex 0.000000e+00 5.707930e+01 4.999994e+00
      endloop
   endfacet
   facet normal 0.000000e+00 1.000000e+00 0.000000e+00
      outer loop
         vertex 0.000000e+00 5.707930e+01 4.999994e+00
         vertex 1.000001e+01 5.707930e+01 2.150000e+02
         vertex 1.000001e+01 5.707930e+01 4.999994e+00
      endloop
   endfacet
   facet normal 0.000000e+00 0.000000e+00 -1.000000e+00
      outer loop
         vertex 0.000000e+00 5.707930e+01 4.999994e+00
         vertex 1.000001e+01 5.707930e+01 4.999994e+00
         vertex 0.000000e+00 9.158603e+00 4.999994e+00
      endloop
   endfacet
   facet normal 0.000000e+00 0.000000e+00 -1.000000e+00
      outer loop
         vertex 0.000000e+00 9.158603e+00 4.999994e+00
         vertex 1.000001e+01 5.707930e+01 4.999994e+00
         vertex 1.000001e+01 9.158603e+00 4.999994e+00
      endloop
   endfacet
   facet normal -0.000000e+00 -0.000000e+00 -1.000000e+00
      outer loop
         vertex 2.400000e+02 2.308414e+02 4.999994e+00
         vertex 2.400000e+02 1.829207e+02 4.999994e+00
         vertex 2.300000e+02 2.308414e+02 4.999994e+00
      endloop
   endfacet
   facet normal 0.000000e+00 0.000000e+00 -1.000000e+00
      outer loop
         vertex 2.300000e+02 2.308414e+02 4.999994e+00
         vertex 2.400000e+02 1.829207e+02 4.999994e+00
         vertex 2.300000e+02 1.829207e+02 4.999994e+00
      endloop
   endfacet
   facet normal 0.000000e+00 1.000000e+00 0.000000e+00
      outer loop
         vertex 2.400000e+02 2.308414e+02 2.150000e+02
         vertex 2.400000e+02 2.308414e+02 4.999994e+00
         vertex 2.300000e+02 2.308414e+02 2.150000e+02
      endloop
   endfacet
   facet normal 0.000000e+00 1.000000e+00 0.000000e+00
      outer loop
         vertex 2.300000e+02 2.308414e+02 2.150000e+02
         vertex 2.400000e+02 2.308414e+02 4.999994e+00
         vertex 2.300000e+02 2.308414e+02 4.999994e+00
      endloop
   endfacet
   facet normal 0.000000e+00 -0.000000e+00 1.000000e+00
      outer loop
         vertex 2.400000e+02 1.829207e+02 2.150000e+02
         vertex 2.400000e+02 2.308414e+02 2.150000e+02
         vertex 2.300000e+02 1.829207e+02 2.150000e+02
      endloop
   endfacet
   facet normal 0.000000e+00 0.000000e+00 1.000000e+00
      outer loop
         vertex 2.300000e+02 1.829207e+02 2.150000e+02
         vertex 2.400000e+02 2.308414e+02 2.150000e+02
         vertex 2.300000e+02 2.308414e+02 2.150000e+02
      endloop
   endfacet
   facet normal 0.000000e+00 -1.000000e+00 0.000000e+00
      outer loop
         vertex 2.400000e+02 1.829207e+02 4.999994e+00
         vertex 2.400000e+02 1.829207e+02 2.150000e+02
         vertex 2.300000e+02 1.829207e+02 4.999994e+00
      endloop
   endfacet
   facet normal 0.000000e+00 -1.000000e+00 0.000000e+00
      outer loop
         vertex 2.300000e+02 1.829207e+02 4.999994e+00
         vertex 2.400000e+02 1.829207e+02 2.150000e+02
         vertex 2.300000e+02 1.829207e+02 2.150000e+02
      endloop
   endfacet
   facet normal -0.000000e+00 -0.000000e+00 -1.000000e+00
      outer loop
         vertex 2.400000e+02 1.729207e+02 4.999994e+00
         vertex 2.400000e+02 1.250000e+02 4.999994e+00
         vertex 2.300000e+02 1.729207e+02 4.999994e+00
      endloop
   endfacet
   facet normal 0.000000e+00 0.000000e+00 -1.000000e+00
      outer loop
         vertex 2.300000e+02 1.729207e+02 4.999994e+00
         vertex 2.400000e+02 1.250000e+02 4.999994e+00
         vertex 2.300000e+02 1.250000e+02 4.999994e+00
      endloop
   endfacet
   facet normal 0.000000e+00 1.000000e+00 0.000000e+00
      outer loop
         vertex 2.400000e+02 1.729207e+02 2.150000e+02
         vertex 2.400000e+02 1.729207e+02 4.999994e+00
         vertex 2.300000e+02 1.729207e+02 2.150000e+02
      endloop
   endfacet
   facet normal 0.000000e+00 1.000000e+00 0.000000e+00
      outer loop
         vertex 2.300000e+02 1.729207e+02 2.150000e+02
         vertex 2.400000e+02 1.729207e+02 4.999994e+00
         vertex 2.300000e+02 1.729207e+02 4.999994e+00
      endloop
   endfacet
   facet normal 0.000000e+00 -0.000000e+00 1.000000e+00
      outer loop
         vertex 2.400000e+02 1.250000e+02 2.150000e+02
         vertex 2.400000e+02 1.729207e+02 2.150000e+02
         vertex 2.300000e+02 1.250000e+02 2.150000e+02
      endloop
   endfacet
   facet normal 0.000000e+00 0.000000e+00 1.000000e+00
      outer loop
         vertex 2.300000e+02 1.250000e+02 2.150000e+02
         vertex 2.400000e+02 1.729207e+02 2.150000e+02
         vertex 2.300000e+02 1.729207e+02 2.150000e+02
      endloop
   endfacet
   facet normal 0.000000e+00 -1.000000e+00 0.000000e+00
      outer loop
         vertex 2.400000e+02 1.250000e+02 4.999994e+00
         vertex 2.400000e+02 1.250000e+02 2.150000e+02
         vertex 2.300000e+02 1.250000e+02 4.999994e+00
      endloop
   endfacet
   facet normal 0.000000e+00 -1.000000e+00 0.000000e+00
      outer loop
         vertex 2.300000e+02 1.250000e+02 4.999994e+00
         vertex 2.400000e+02 1.250000e+02 2.150000e+02
         vertex 2.300000e+02 1.250000e+02 2.150000e+02
      endloop
   endfacet
   facet normal -0.000000e+00 -0.000000e+00 -1.000000e+00
      outer loop
         vertex 2.400000e+02 1.150000e+02 4.999994e+00
         vertex 2.400000e+02 6.707930e+01 4.999994e+00
         vertex 2.300000e+02 1.150000e+02 4.999994e+00
      endloop
   endfacet
   facet normal 0.000000e+00 0.000000e+00 -1.000000e+00
      outer loop
         vertex 2.300000e+02 1.150000e+02 4.999994e+00
         vertex 2.400000e+02 6.707930e+01 4.999994e+00
         vertex 2.300000e+02 6.707930e+01 4.999994e+00
      endloop
   endfacet
   facet normal 0.000000e+00 1.000000e+00 0.000000e+00
      outer loop
         vertex 2.400000e+02 1.150000e+02 2.150000e+02
         vertex 2.400000e+02 1.150000e+02 4.999994e+00
         vertex 2.300000e+02 1.150000e+02 2.150000e+02
      endloop
   endfacet
   facet normal 0.000000e+00 1.000000e+00 0.000000e+00
      outer loop
         vertex 2.300000e+02 1.150000e+02 2.150000e+02
         vertex 2.400000e+02 1.150000e+02 4.999994e+00
         vertex 2.300000e+02 1.150000e+02 4.999994e+00
      endloop
   endfacet
   facet normal 0.000000e+00 -0.000000e+00 1.000000e+00
      outer loop
         vertex 2.400000e+02 6.707930e+01 2.150000e+02
         vertex 2.400000e+02 1.150000e+02 2.150000e+02
         vertex 2.300000e+02 6.707930e+01 2.150000e+02
      endloop
   endfacet
   facet normal 0.000000e+00 0.000000e+00 1.000000e+00
      outer loop
         vertex 2.300000e+02 6.707930e+01 2.150000e+02
         vertex 2.400000e+02 1.150000e+02 2.150000e+02
         vertex 2.300000e+02 1.150000e+02 2.150000e+02
      endloop
   endfacet
   facet normal 0.000000e+00 -1.000000e+00 0.000000e+00
      outer loop
         vertex 2.400000e+02 6.707930e+01 4.999994e+00
         vertex 2.400000e+02 6.707930e+01 2.150000e+02
         vertex 2.300000e+02 6.707930e+01 4.999994e+00
      endloop
   endfacet
   facet normal 0.000000e+00 -1.000000e+00 0.000000e+00
      outer loop
         vertex 2.300000e+02 6.707930e+01 4.999994e+00
         vertex 2.400000e+02 6.707930e+01 2.150000e+02
         vertex 2.300000e+02 6.707930e+01 2.150000e+02
      endloop
   endfacet
   facet normal -0.000000e+00 -0.000000e+00 -1.000000e+00
      outer loop
         vertex 2.400000e+02 5.707930e+01 4.999994e+00
         vertex 2.400000e+02 9.158603e+00 4.999994e+00
         vertex 2.300000e+02 5.707930e+01 4.999994e+00
      endloop
   endfacet
   facet normal 0.000000e+00 0.000000e+00 -1.000000e+00
      outer loop
         vertex 2.300000e+02 5.707930e+01 4.999994e+00
         vertex 2.400000e+02 9.158603e+00 4.999994e+00
         vertex 2.300000e+02 9.158603e+00 4.999994e+00
      endloop
   endfacet
   facet normal 0.000000e+00 1.000000e+00 0.000000e+00
      outer loop
         vertex 2.400000e+02 5.707930e+01 2.150000e+02
         vertex 2.400000e+02 5.707930e+01 4.999994e+00
         vertex 2.300000e+02 5.707930e+01 2.150000e+02
      endloop
   endfacet
   facet normal 0.000000e+00 1.000000e+00 0.000000e+00
      outer loop
         vertex 2.300000e+02 5.707930e+01 2.150000e+02
         vertex 2.400000e+02 5.707930e+01 4.999994e+00
         vertex 2.300000e+02 5.707930e+01 4.999994e+00
      endloop
   endfacet
   facet normal 0.000000e+00 -0.000000e+00 1.000000e+00
      outer loop
         vertex 2.400000e+02 9.158603e+00 2.150000e+02
         vertex 2.400000e+02 5.707930e+01 2.150000e+02
         vertex 2.300000e+02 9.158603e+00 2.150000e+02
      endloop
   endfacet
   facet normal 0.000000e+00 0.000000e+00 1.000000e+00
      outer loop
         vertex 2.300000e+02 9.158603e+00 2.150000e+02
         vertex 2.400000e+02 5.707930e+01 2.150000e+02
         vertex 2.300000e+02 5.707930e+01 2.150000e+02
      endloop
   endfacet
   facet normal 0.000000e+00 -1.000000e+00 0.000000e+00
      outer loop
         vertex 2.400000e+02 9.158603e+00 4.999994e+00
         vertex 2.400000e+02 9.158603e+00 2.150000e+02
         vertex 2.300000e+02 9.158603e+00 4.999994e+00
      endloop
   endfacet
   facet normal 0.000000e+00 -1.000000e+00 0.000000e+00
      outer loop
         vertex 2.300000e+02 9.158603e+00 4.999994e+00
         vertex 2.400000e+02 9.158603e+00 2.150000e+02
         vertex 2.300000e+02 9.158603e+00 2.150000e+02
      endloop
   endfacet
   facet normal 0.000000e+00 0.000000e+00 -1.000000e+00
      outer loop
         vertex 1.000001e+01 2.400000e+02 0.000000e+00
         vertex 2.300000e+02 2.400000e+02 0.000000e+00
         vertex 1.000001e+01 0.000000e+00 0.000000e+00
      endloop
   endfacet
   facet normal 0.000000e+00 0.000000e+00 -1.000000e+00
      outer loop
         vertex 1.000001e+01 0.000000e+00 0.000000e+00
         vertex 2.300000e+02 2.400000e+02 0.000000e+00
         vertex 2.300000e+02 0.000000e+00 0.000000e+00
      endloop
   endfacet
   facet normal 1.000000e+00 0.000000e+00 0.000000e+00
      outer loop
         vertex 2.300000e+02 0.000000e+00 0.000000e+00
         vertex 2.300000e+02 2.400000e+02 0.000000e+00
         vertex 2.300000e+02 1.829207e+02 4.999994e+00
      endloop
   endfacet
   facet normal 1.000000e+00 -0.000000e+00 0.000000e+00
      outer loop
         vertex 2.300000e+02 1.829207e+02 4.999994e+00
         vertex 2.300000e+02 2.400000e+02 0.000000e+00
         vertex 2.300000e+02 2.308414e+02 4.999994e+00
      endloop
   endfacet
   facet normal 1.000000e+00 -0.000000e+00 0.000000e+00
      outer loop
         vertex 2.300000e+02 2.308414e+02 4.999994e+00
         vertex 2.300000e+02 2.400000e+02 0.000000e+00
         vertex 2.300000e+02 2.308414e+02 2.150000e+02
      endloop
   endfacet
   facet normal 1.000000e+00 -0.000000e+00 0.000000e+00
      outer loop
         vertex 2.300000e+02 2.308414e+02 2.150000e+02
         vertex 2.300000e+02 2.400000e+02 0.000000e+00
         vertex 2.300000e+02 2.400000e+02 2.200000e+02
      endloop
   endfacet
   facet normal 1.000000e+00 0.000000e+00 -0.000000e+00
      outer loop
         vertex 2.300000e+02 2.308414e+02 2.150000e+02
         vertex 2.300000e+02 2.400000e+02 2.200000e+02
         vertex 2.300000e+02 1.829207e+02 2.150000e+02
      endloop
   endfacet
   facet normal 1.000000e+00 0.000000e+00 0.000000e+00
      outer loop
         vertex 2.300000e+02 0.000000e+00 0.000000e+00
         vertex 2.300000e+02 9.158603e+00 4.999994e+00
         vertex 2.300000e+02 0.000000e+00 2.200000e+02
      endloop
   endfacet
   facet normal 1.000000e+00 0.000000e+00 0.000000e+00
      outer loop
         vertex 2.300000e+02 0.000000e+00 2.200000e+02
         vertex 2.300000e+02 9.158603e+00 4.999994e+00
         vertex 2.300000e+02 9.158603e+00 2.150000e+02
      endloop
   endfacet
   facet normal 1.000000e+00 0.000000e+00 0.000000e+00
      outer loop
         vertex 2.300000e+02 0.000000e+00 2.200000e+02
         vertex 2.300000e+02 9.158603e+00 2.150000e+02
         vertex 2.300000e+02 5.707930e+01 2.150000e+02
      endloop
   endfacet
   facet normal 1.000000e+00 0.000000e+00 0.000000e+00
      outer loop
         vertex 2.300000e+02 0.000000e+00 2.200000e+02
         vertex 2.300000e+02 1.250000e+02 2.150000e+02
         vertex 2.300000e+02 1.729207e+02 2.150000e+02
      endloop
   endfacet
   facet normal 1.000000e+00 0.000000e+00 0.000000e+00
      outer loop
         vertex 2.300000e+02 5.707930e+01 4.999994e+00
         vertex 2.300000e+02 6.707930e+01 4.999994e+00
         vertex 2.300000e+02 5.707930e+01 2.150000e+02
      endloop
   endfacet
   facet normal 1.000000e+00 -0.000000e+00 0.000000e+00
      outer loop
         vertex 2.300000e+02 5.707930e+01 2.150000e+02
         vertex 2.300000e+02 6.707930e+01 4.999994e+00
         vertex 2.300000e+02 6.707930e+01 2.150000e+02
      endloop
   endfacet
   facet normal 1.000000e+00 0.000000e+00 -0.000000e+00
      outer loop
         vertex 2.300000e+02 5.707930e+01 2.150000e+02
         vertex 2.300000e+02 6.707930e+01 2.150000e+02
         vertex 2.300000e+02 0.000000e+00 2.200000e+02
      endloop
   endfacet
   facet normal 1.000000e+00 0.000000e+00 0.000000e+00
      outer loop
         vertex 2.300000e+02 0.000000e+00 2.200000e+02
         vertex 2.300000e+02 6.707930e+01 2.150000e+02
         vertex 2.300000e+02 1.150000e+02 2.150000e+02
      endloop
   endfacet
   facet normal 1.000000e+00 0.000000e+00 0.000000e+00
      outer loop
         vertex 2.300000e+02 0.000000e+00 2.200000e+02
         vertex 2.300000e+02 1.150000e+02 2.150000e+02
         vertex 2.300000e+02 1.250000e+02 2.150000e+02
      endloop
   endfacet
   facet normal 1.000000e+00 0.000000e+00 0.000000e+00
      outer loop
         vertex 2.300000e+02 1.250000e+02 2.150000e+02
         vertex 2.300000e+02 1.150000e+02 2.150000e+02
         vertex 2.300000e+02 1.250000e+02 4.999994e+00
      endloop
   endfacet
   facet normal 1.000000e+00 0.000000e+00 0.000000e+00
      outer loop
         vertex 2.300000e+02 1.150000e+02 4.999994e+00
         vertex 2.300000e+02 6.707930e+01 4.999994e+00
         vertex 2.300000e+02 0.000000e+00 0.000000e+00
      endloop
   endfacet
   facet normal 1.000000e+00 0.000000e+00 0.000000e+00
      outer loop
         vertex 2.300000e+02 0.000000e+00 0.000000e+00
         vertex 2.300000e+02 6.707930e+01 4.999994e+00
         vertex 2.300000e+02 5.707930e+01 4.999994e+00
      endloop
   endfacet
   facet normal 1.000000e+00 0.000000e+00 0.000000e+00
      outer loop
         vertex 2.300000e+02 0.000000e+00 0.000000e+00
         vertex 2.300000e+02 5.707930e+01 4.999994e+00
         vertex 2.300000e+02 9.158603e+00 4.999994e+00
      endloop
   endfacet
   facet normal 1.000000e+00 0.000000e+00 0.000000e+00
      outer loop
         vertex 2.300000e+02 1.150000e+02 2.150000e+02
         vertex 2.300000e+02 1.150000e+02 4.999994e+00
         vertex 2.300000e+02 1.250000e+02 4.999994e+00
      endloop
   endfacet
   facet normal 1.000000e+00 0.000000e+00 0.000000e+00
      outer loop
         vertex 2.300000e+02 1.250000e+02 4.999994e+00
         vertex 2.300000e+02 1.150000e+02 4.999994e+00
         vertex 2.300000e+02 0.000000e+00 0.000000e+00
      endloop
   endfacet
   facet normal 1.000000e+00 -0.000000e+00 0.000000e+00
      outer loop
         vertex 2.300000e+02 1.250000e+02 4.999994e+00
         vertex 2.300000e+02 0.000000e+00 0.000000e+00
         vertex 2.300000e+02 1.729207e+02 4.999994e+00
      endloop
   endfacet
   facet normal 1.000000e+00 -0.000000e+00 0.000000e+00
      outer loop
         vertex 2.300000e+02 1.729207e+02 4.999994e+00
         vertex 2.300000e+02 0.000000e+00 0.000000e+00
         vertex 2.300000e+02 1.829207e+02 4.999994e+00
      endloop
   endfacet
   facet normal 1.000000e+00 0.000000e+00 0.000000e+00
      outer loop
         vertex 2.300000e+02 1.729207e+02 4.999994e+00
         vertex 2.300000e+02 1.829207e+02 4.999994e+00
         vertex 2.300000e+02 1.729207e+02 2.150000e+02
      endloop
   endfacet
   facet normal 1.000000e+00 -0.000000e+00 0.000000e+00
      outer loop
         vertex 2.300000e+02 1.729207e+02 2.150000e+02
         vertex 2.300000e+02 1.829207e+02 4.999994e+00
         vertex 2.300000e+02 1.829207e+02 2.150000e+02
      endloop
   endfacet
   facet normal 1.000000e+00 0.000000e+00 -0.000000e+00
      outer loop
         vertex 2.300000e+02 1.729207e+02 2.150000e+02
         vertex 2.300000e+02 1.829207e+02 2.150000e+02
         vertex 2.300000e+02 0.000000e+00 2.200000e+02
      endloop
   endfacet
   facet normal 1.000000e+00 -0.000000e+00 0.000000e+00
      outer loop
         vertex 2.300000e+02 0.000000e+00 2.200000e+02
         vertex 2.300000e+02 1.829207e+02 2.150000e+02
         vertex 2.300000e+02 2.400000e+02 2.200000e+02
      endloop
   endfacet
   facet normal 0.000000e+00 0.000000e+00 1.000000e+00
      outer loop
         vertex 2.300000e+02 2.400000e+02 2.200000e+02
         vertex 1.000001e+01 2.400000e+02 2.200000e+02
         vertex 2.300000e+02 0.000000e+00 2.200000e+02
      endloop
   endfacet
   facet normal 0.000000e+00 0.000000e+00 1.000000e+00
      outer loop
         vertex 2.300000e+02 0.000000e+00 2.200000e+02
         vertex 1.000001e+01 2.400000e+02 2.200000e+02
         vertex 1.000001e+01 0.000000e+00 2.200000e+02
      endloop
   endfacet
   facet normal -1.000000e+00 0.000000e+00 0.000000e+00
      outer loop
         vertex 1.000001e+01 2.400000e+02 2.200000e+02
         vertex 1.000001e+01 2.308414e+02 2.150000e+02
         vertex 1.000001e+01 1.829207e+02 2.150000e+02
      endloop
   endfacet
   facet normal -1.000000e+00 0.000000e+00 -0.000000e+00
      outer loop
         vertex 1.000001e+01 1.150000e+02 4.999994e+00
         vertex 1.000001e+01 2.400000e+02 0.000000e+00
         vertex 1.000001e+01 0.000000e+00 0.000000e+00
      endloop
   endfacet
   facet normal -1.000000e+00 -0.000000e+00 0.000000e+00
      outer loop
         vertex 1.000001e+01 1.150000e+02 4.999994e+00
         vertex 1.000001e+01 0.000000e+00 0.000000e+00
         vertex 1.000001e+01 6.707930e+01 4.999994e+00
      endloop
   endfacet
   facet normal -1.000000e+00 -0.000000e+00 0.000000e+00
      outer loop
         vertex 1.000001e+01 6.707930e+01 4.999994e+00
         vertex 1.000001e+01 0.000000e+00 0.000000e+00
         vertex 1.000001e+01 5.707930e+01 4.999994e+00
      endloop
   endfacet
   facet normal -1.000000e+00 0.000000e+00 0.000000e+00
      outer loop
         vertex 1.000001e+01 6.707930e+01 4.999994e+00
         vertex 1.000001e+01 5.707930e+01 4.999994e+00
         vertex 1.000001e+01 6.707930e+01 2.150000e+02
      endloop
   endfacet
   facet normal -1.000000e+00 0.000000e+00 0.000000e+00
      outer loop
         vertex 1.000001e+01 1.250000e+02 2.150000e+02
         vertex 1.000001e+01 2.400000e+02 2.200000e+02
         vertex 1.000001e+01 1.729207e+02 2.150000e+02
      endloop
   endfacet
   facet normal -1.000000e+00 0.000000e+00 0.000000e+00
      outer loop
         vertex 1.000001e+01 1.729207e+02 2.150000e+02
         vertex 1.000001e+01 2.400000e+02 2.200000e+02
         vertex 1.000001e+01 1.829207e+02 2.150000e+02
      endloop
   endfacet
   facet normal -1.000000e+00 0.000000e+00 0.000000e+00
      outer loop
         vertex 1.000001e+01 1.729207e+02 2.150000e+02
         vertex 1.000001e+01 1.829207e+02 2.150000e+02
         vertex 1.000001e+01 1.729207e+02 4.999994e+00
      endloop
   endfacet
   facet normal -1.000000e+00 -0.000000e+00 0.000000e+00
      outer loop
         vertex 1.000001e+01 2.400000e+02 2.200000e+02
         vertex 1.000001e+01 5.707930e+01 2.150000e+02
         vertex 1.000001e+01 0.000000e+00 2.200000e+02
      endloop
   endfacet
   facet normal -1.000000e+00 0.000000e+00 0.000000e+00
      outer loop
         vertex 1.000001e+01 0.000000e+00 2.200000e+02
         vertex 1.000001e+01 5.707930e+01 2.150000e+02
         vertex 1.000001e+01 9.158603e+00 2.150000e+02
      endloop
   endfacet
   facet normal -1.000000e+00 0.000000e+00 0.000000e+00
      outer loop
         vertex 1.000001e+01 0.000000e+00 2.200000e+02
         vertex 1.000001e+01 9.158603e+00 2.150000e+02
         vertex 1.000001e+01 0.000000e+00 0.000000e+00
      endloop
   endfacet
   facet normal -1.000000e+00 0.000000e+00 0.000000e+00
      outer loop
         vertex 1.000001e+01 0.000000e+00 0.000000e+00
         vertex 1.000001e+01 9.158603e+00 2.150000e+02
         vertex 1.000001e+01 9.158603e+00 4.999994e+00
      endloop
   endfacet
   facet normal -1.000000e+00 0.000000e+00 0.000000e+00
      outer loop
         vertex 1.000001e+01 0.000000e+00 0.000000e+00
         vertex 1.000001e+01 9.158603e+00 4.999994e+00
         vertex 1.000001e+01 5.707930e+01 4.999994e+00
      endloop
   endfacet
   facet normal -1.000000e+00 0.000000e+00 0.000000e+00
      outer loop
         vertex 1.000001e+01 2.308414e+02 2.150000e+02
         vertex 1.000001e+01 2.400000e+02 2.200000e+02
         vertex 1.000001e+01 2.308414e+02 4.999994e+00
      endloop
   endfacet
   facet normal -1.000000e+00 0.000000e+00 0.000000e+00
      outer loop
         vertex 1.000001e+01 2.308414e+02 4.999994e+00
         vertex 1.000001e+01 2.400000e+02 2.200000e+02
         vertex 1.000001e+01 2.400000e+02 0.000000e+00
      endloop
   endfacet
   facet normal -1.000000e+00 -0.000000e+00 -0.000000e+00
      outer loop
         vertex 1.000001e+01 2.308414e+02 4.999994e+00
         vertex 1.000001e+01 2.400000e+02 0.000000e+00
         vertex 1.000001e+01 1.829207e+02 4.999994e+00
      endloop
   endfacet
   facet normal -1.000000e+00 0.000000e+00 -0.000000e+00
      outer loop
         vertex 1.000001e+01 1.829207e+02 2.150000e+02
         vertex 1.000001e+01 1.829207e+02 4.999994e+00
         vertex 1.000001e+01 1.729207e+02 4.999994e+00
      endloop
   endfacet
   facet normal -1.000000e+00 0.000000e+00 0.000000e+00
      outer loop
         vertex 1.000001e+01 1.729207e+02 4.999994e+00
         vertex 1.000001e+01 1.829207e+02 4.999994e+00
         vertex 1.000001e+01 2.400000e+02 0.000000e+00
      endloop
   endfacet
   facet normal -1.000000e+00 -0.000000e+00 -0.000000e+00
      outer loop
         vertex 1.000001e+01 1.729207e+02 4.999994e+00
         vertex 1.000001e+01 2.400000e+02 0.000000e+00
         vertex 1.000001e+01 1.250000e+02 4.999994e+00
      endloop
   endfacet
   facet normal -1.000000e+00 -0.000000e+00 -0.000000e+00
      outer loop
         vertex 1.000001e+01 1.250000e+02 4.999994e+00
         vertex 1.000001e+01 2.400000e+02 0.000000e+00
         vertex 1.000001e+01 1.150000e+02 4.999994e+00
      endloop
   endfacet
   facet normal -1.000000e+00 0.000000e+00 0.000000e+00
      outer loop
         vertex 1.000001e+01 1.250000e+02 4.999994e+00
         vertex 1.000001e+01 1.150000e+02 4.999994e+00
         vertex 1.000001e+01 1.250000e+02 2.150000e+02
      endloop
   endfacet
   facet normal -1.000000e+00 -0.000000e+00 0.000000e+00
      outer loop
         vertex 1.000001e+01 1.250000e+02 2.150000e+02
         vertex 1.000001e+01 1.150000e+02 4.999994e+00
         vertex 1.000001e+01 1.150000e+02 2.150000e+02
      endloop
   endfacet
   facet normal -1.000000e+00 0.000000e+00 0.000000e+00
      outer loop
         vertex 1.000001e+01 1.250000e+02 2.150000e+02
         vertex 1.000001e+01 1.150000e+02 2.150000e+02
         vertex 1.000001e+01 2.400000e+02 2.200000e+02
      endloop
   endfacet
   facet normal -1.000000e+00 0.000000e+00 0.000000e+00
      outer loop
         vertex 1.000001e+01 2.400000e+02 2.200000e+02
         vertex 1.000001e+01 1.150000e+02 2.150000e+02
         vertex 1.000001e+01 6.707930e+01 2.150000e+02
      endloop
   endfacet
   facet normal -1.000000e+00 0.000000e+00 0.000000e+00
      outer loop
         vertex 1.000001e+01 2.400000e+02 2.200000e+02
         vertex 1.000001e+01 6.707930e+01 2.150000e+02
         vertex 1.000001e+01 5.707930e+01 2.150000e+02
      endloop
   endfacet
   facet normal -1.000000e+00 0.000000e+00 0.000000e+00
      outer loop
         vertex 1.000001e+01 5.707930e+01 2.150000e+02
         vertex 1.000001e+01 6.707930e+01 2.150000e+02
         vertex 1.000001e+01 5.707930e+01 4.999994e+00
      endloop
   endfacet
   facet normal -1.000000e+00 -0.000000e+00 -0.000000e+00
      outer loop
         vertex 0.000000e+00 5.707930e+01 2.150000e+02
         vertex 0.000000e+00 5.707930e+01 4.999994e+00
         vertex 0.000000e+00 9.158603e+00 2.150000e+02
      endloop
   endfacet
   facet normal -1.000000e+00 0.000000e+00 0.000000e+00
      outer loop
         vertex 0.000000e+00 9.158603e+00 2.150000e+02
         vertex 0.000000e+00 5.707930e+01 4.999994e+00
         vertex 0.000000e+00 9.158603e+00 4.999994e+00
      endloop
   endfacet
   facet normal -1.000000e+00 -0.000000e+00 -0.000000e+00
      outer loop
         vertex 0.000000e+00 1.150000e+02 2.150000e+02
         vertex 0.000000e+00 1.150000e+02 4.999994e+00
         vertex 0.000000e+00 6.707930e+01 2.150000e+02
      endloop
   endfacet
   facet normal -1.000000e+00 0.000000e+00 0.000000e+00
      outer loop
         vertex 0.000000e+00 6.707930e+01 2.150000e+02
         vertex 0.000000e+00 1.150000e+02 4.999994e+00
         vertex 0.000000e+00 6.707930e+01 4.999994e+00
      endloop
   endfacet
   facet normal -1.000000e+00 -0.000000e+00 -0.000000e+00
      outer loop
         vertex 0.000000e+00 1.729207e+02 2.150000e+02
         vertex 0.000000e+00 1.729207e+02 4.999994e+00
         vertex 0.000000e+00 1.250000e+02 2.150000e+02
      endloop
   endfacet
   facet normal -1.000000e+00 0.000000e+00 0.000000e+00
      outer loop
         vertex 0.000000e+00 1.250000e+02 2.150000e+02
         vertex 0.000000e+00 1.729207e+02 4.999994e+00
         vertex 0.000000e+00 1.250000e+02 4.999994e+00
      endloop
   endfacet
   facet normal -1.000000e+00 -0.000000e+00 -0.000000e+00
      outer loop
         vertex 0.000000e+00 2.308414e+02 2.150000e+02
         vertex 0.000000e+00 2.308414e+02 4.999994e+00
         vertex 0.000000e+00 1.829207e+02 2.150000e+02
      endloop
   endfacet
   facet normal -1.000000e+00 0.000000e+00 0.000000e+00
      outer loop
         vertex 0.000000e+00 1.829207e+02 2.150000e+02
         vertex 0.000000e+00 2.308414e+02 4.999994e+00
         vertex 0.000000e+00 1.829207e+02 4.999994e+00
      endloop
   endfacet
   facet normal 1.000000e+00 -0.000000e+00 0.000000e+00
      outer loop
         vertex 2.400000e+02 9.158603e+00 2.150000e+02
         vertex 2.400000e+02 9.158603e+00 4.999994e+00
         vertex 2.400000e+02 5.707930e+01 2.150000e+02
      endloop
   endfacet
   facet normal 1.000000e+00 0.000000e+00 0.000000e+00
      outer loop
         vertex 2.400000e+02 5.707930e+01 2.150000e+02
         vertex 2.400000e+02 9.158603e+00 4.999994e+00
         vertex 2.400000e+02 5.707930e+01 4.999994e+00
      endloop
   endfacet
   facet normal 1.000000e+00 -0.000000e+00 0.000000e+00
      outer loop
         vertex 2.400000e+02 6.707930e+01 2.150000e+02
         vertex 2.400000e+02 6.707930e+01 4.999994e+00
         vertex 2.400000e+02 1.150000e+02 2.150000e+02
      endloop
   endfacet
   facet normal 1.000000e+00 0.000000e+00 0.000000e+00
      outer loop
         vertex 2.400000e+02 1.150000e+02 2.150000e+02
         vertex 2.400000e+02 6.707930e+01 4.999994e+00
         vertex 2.400000e+02 1.150000e+02 4.999994e+00
      endloop
   endfacet
   facet normal 1.000000e+00 -0.000000e+00 0.000000e+00
      outer loop
         vertex 2.400000e+02 1.250000e+02 2.150000e+02
         vertex 2.400000e+02 1.250000e+02 4.999994e+00
         vertex 2.400000e+02 1.729207e+02 2.150000e+02
      endloop
   endfacet
   facet normal 1.000000e+00 0.000000e+00 0.000000e+00
      outer loop
         vertex 2.400000e+02 1.729207e+02 2.150000e+02
         vertex 2.400000e+02 1.250000e+02 4.999994e+00
         vertex 2.400000e+02 1.729207e+02 4.999994e+00
      endloop
   endfacet
   facet normal 1.000000e+00 -0.000000e+00 0.000000e+00
      outer loop
         vertex 2.400000e+02 1.829207e+02 2.150000e+02
         vertex 2.400000e+02 1.829207e+02 4.999994e+00
         vertex 2.400000e+02 2.308414e+02 2.150000e+02
      endloop
   endfacet
   facet normal 1.000000e+00 0.000000e+00 0.000000e+00
      outer loop
         vertex 2.400000e+02 2.308414e+02 2.150000e+02
         vertex 2.400000e+02 1.829207e+02 4.999994e+00
         vertex 2.400000e+02 2.308414e+02 4.999994e+00
      endloop
   endfacet
   facet normal 0.000000e+00 1.000000e+00 0.000000e+00
      outer loop
         vertex 2.300000e+02 2.400000e+02 2.200000e+02
         vertex 2.300000e+02 2.400000e+02 0.000000e+00
         vertex 1.000001e+01 2.400000e+02 2.200000e+02
      endloop
   endfacet
   facet normal 0.000000e+00 1.000000e+00 0.000000e+00
      outer loop
         vertex 1.000001e+01 2.400000e+02 2.200000e+02
         vertex 2.300000e+02 2.400000e+02 0.000000e+00
         vertex 1.000001e+01 2.400000e+02 0.000000e+00
      endloop
   endfacet
endsolid