solid Open_Part1
   facet normal -0.000000e+00 1.000000e+00 0.000000e+00
      outer loop
         vertex 1.916667e+01 2.000000e+01 1.916667e+01
         vertex 2.000000e+01 2.000000e+01 2.000000e+01
         vertex 1.916667e+01 2.000000e+01 8.333339e-01
      endloop
   endfacet
   facet normal -0.000000e+00 1.000000e+00 0.000000e+00
      outer loop
         vertex 1.916667e+01 2.000000e+01 8.333339e-01
         vertex 2.000000e+01 2.000000e+01 2.000000e+01
         vertex 2.000000e+01 2.000000e+01 0.000000e+00
      endloop
   endfacet
   facet normal 0.000000e+00 1.000000e+00 0.000000e+00
      outer loop
         vertex 1.916667e+01 2.000000e+01 8.333339e-01
         vertex 2.000000e+01 2.000000e+01 0.000000e+00
         vertex 8.333339e-01 2.000000e+01 8.333339e-01
      endloop
   endfacet
   facet normal 0.000000e+00 1.000000e+00 0.000000e+00
      outer loop
         vertex 8.333339e-01 2.000000e+01 8.333339e-01
         vertex 2.000000e+01 2.000000e+01 0.000000e+00
         vertex 0.000000e+00 2.000000e+01 0.000000e+00
      endloop
   endfacet
   facet normal 0.000000e+00 1.000000e+00 -0.000000e+00
      outer loop
         vertex 8.333339e-01 2.000000e+01 8.333339e-01
         vertex 0.000000e+00 2.000000e+01 0.000000e+00
         vertex 8.333339e-01 2.000000e+01 1.916667e+01
      endloop
   endfacet
   facet normal 0.000000e+00 1.000000e+00 0.000000e+00
      outer loop
         vertex 8.333339e-01 2.000000e+01 1.916667e+01
         vertex 0.000000e+00 2.000000e+01 0.000000e+00
         vertex 0.000000e+00 2.000000e+01 2.000000e+01
      endloop
   endfacet
   facet normal 0.000000e+00 1.000000e+00 -0.000000e+00
      outer loop
         vertex 8.333339e-01 2.000000e+01 1.916667e+01
         vertex 0.000000e+00 2.000000e+01 2.000000e+01
         vertex 1.916667e+01 2.000000e+01 1.916667e+01
      endloop
   endfacet
   facet normal 0.000000e+00 1.000000e+00 -0.000000e+00
      outer loop
         vertex 1.916667e+01 2.000000e+01 1.916667e+01
         vertex 0.000000e+00 2.000000e+01 2.000000e+01
         vertex 2.000000e+01 2.000000e+01 2.000000e+01
      endloop
   endfacet
   facet normal 0.000000e+00 -1.000000e+00 0.000000e+00
      outer loop
         vertex 1.916667e+01 0.000000e+00 1.916667e+01
         vertex 2.000000e+01 0.000000e+00 2.000000e+01
         vertex 8.333339e-01 0.000000e+00 1.916667e+01
      endloop
   endfacet
   facet normal 0.000000e+00 -1.000000e+00 0.000000e+00
      outer loop
         vertex 8.333339e-01 0.000000e+00 1.916667e+01
         vertex 2.000000e+01 0.000000e+00 2.000000e+01
         vertex 0.000000e+00 0.000000e+00 2.000000e+01
      endloop
   endfacet
   facet normal -0.000000e+00 -1.000000e+00 -0.000000e+00
      outer loop
         vertex 8.333339e-01 0.000000e+00 1.916667e+01
         vertex 0.000000e+00 0.000000e+00 2.000000e+01
         vertex 8.333339e-01 0.000000e+00 8.333339e-01
      endloop
   endfacet
   facet normal -0.000000e+00 -1.000000e+00 0.000000e+00
      outer loop
         vertex 8.333339e-01 0.000000e+00 8.333339e-01
         vertex 0.000000e+00 0.000000e+00 2.000000e+01
         vertex 0.000000e+00 0.000000e+00 0.000000e+00
      endloop
   endfacet
   facet normal 0.000000e+00 -1.000000e+00 -0.000000e+00
      outer loop
         vertex 8.333339e-01 0.000000e+00 8.333339e-01
         vertex 0.000000e+00 0.000000e+00 0.000000e+00
         vertex 1.916667e+01 0.000000e+00 8.333339e-01
      endloop
   endfacet
   facet normal 0.000000e+00 -1.000000e+00 -0.000000e+00
      outer loop
         vertex 1.916667e+01 0.000000e+00 8.333339e-01
         vertex 0.000000e+00 0.000000e+00 0.000000e+00
         vertex 2.000000e+01 0.000000e+00 0.000000e+00
      endloop
   endfacet
   facet normal 0.000000e+00 -1.000000e+00 0.000000e+00
      outer loop
         vertex 1.916667e+01 0.000000e+00 8.333339e-01
         vertex 2.000000e+01 0.000000e+00 0.000000e+00
         vertex 1.916667e+01 0.000000e+00 1.916667e+01
      endloop
   endfacet
   facet normal 0.000000e+00 -1.000000e+00 0.000000e+00
      outer loop
         vertex 1.916667e+01 0.000000e+00 1.916667e+01
         vertex 2.000000e+01 0.000000e+00 0.000000e+00
         vertex 2.000000e+01 0.000000e+00 2.000000e+01
      endloop
   endfacet
   facet normal 1.000000e+00 0.000000e+00 0.000000e+00
      outer loop
         vertex 2.000000e+01 2.000000e+01 0.000000e+00
         vertex 2.000000e+01 4.756608e+00 1.250000e+00
         vertex 2.000000e+01 0.000000e+00 0.000000e+00
      endloop
   endfacet
   facet normal 1.000000e+00 0.000000e+00 0.000000e+00
      outer loop
         vertex 2.000000e+01 0.000000e+00 0.000000e+00
         vertex 2.000000e+01 4.756608e+00 1.250000e+00
         vertex 2.000000e+01 7.632169e-01 1.250000e+00
      endloop
   endfacet
   facet normal 1.000000e+00 0.000000e+00 0.000000e+00
      outer loop
         vertex 2.000000e+01 0.000000e+00 0.000000e+00
         vertex 2.000000e+01 7.632169e-01 1.250000e+00
         vertex 2.000000e+01 0.000000e+00 2.000000e+01
      endloop
   endfacet
   facet normal 1.000000e+00 0.000000e+00 0.000000e+00
      outer loop
         vertex 2.000000e+01 0.000000e+00 2.000000e+01
         vertex 2.000000e+01 7.632169e-01 1.250000e+00
         vertex 2.000000e+01 7.632169e-01 1.875000e+01
      endloop
   endfacet
   facet normal 1.000000e+00 0.000000e+00 0.000000e+00
      outer loop
         vertex 2.000000e+01 0.000000e+00 2.000000e+01
         vertex 2.000000e+01 7.632169e-01 1.875000e+01
         vertex 2.000000e+01 4.756608e+00 1.875000e+01
      endloop
   endfacet
   facet normal 1.000000e+00 -0.000000e+00 0.000000e+00
      outer loop
         vertex 2.000000e+01 1.041667e+01 1.250000e+00
         vertex 2.000000e+01 2.000000e+01 0.000000e+00
         vertex 2.000000e+01 1.441006e+01 1.250000e+00
      endloop
   endfacet
   facet normal 1.000000e+00 -0.000000e+00 0.000000e+00
      outer loop
         vertex 2.000000e+01 1.441006e+01 1.250000e+00
         vertex 2.000000e+01 2.000000e+01 0.000000e+00
         vertex 2.000000e+01 1.524339e+01 1.250000e+00
      endloop
   endfacet
   facet normal 1.000000e+00 0.000000e+00 0.000000e+00
      outer loop
         vertex 2.000000e+01 1.441006e+01 1.250000e+00
         vertex 2.000000e+01 1.524339e+01 1.250000e+00
         vertex 2.000000e+01 1.441006e+01 1.875000e+01
      endloop
   endfacet
   facet normal 1.000000e+00 -0.000000e+00 0.000000e+00
      outer loop
         vertex 2.000000e+01 0.000000e+00 2.000000e+01
         vertex 2.000000e+01 1.524339e+01 1.875000e+01
         vertex 2.000000e+01 2.000000e+01 2.000000e+01
      endloop
   endfacet
   facet normal 1.000000e+00 0.000000e+00 0.000000e+00
      outer loop
         vertex 2.000000e+01 2.000000e+01 2.000000e+01
         vertex 2.000000e+01 1.524339e+01 1.875000e+01
         vertex 2.000000e+01 1.923678e+01 1.875000e+01
      endloop
   endfacet
   facet normal 1.000000e+00 0.000000e+00 0.000000e+00
      outer loop
         vertex 2.000000e+01 2.000000e+01 2.000000e+01
         vertex 2.000000e+01 1.923678e+01 1.875000e+01
         vertex 2.000000e+01 2.000000e+01 0.000000e+00
      endloop
   endfacet
   facet normal 1.000000e+00 0.000000e+00 0.000000e+00
      outer loop
         vertex 2.000000e+01 2.000000e+01 0.000000e+00
         vertex 2.000000e+01 1.923678e+01 1.875000e+01
         vertex 2.000000e+01 1.923678e+01 1.250000e+00
      endloop
   endfacet
   facet normal 1.000000e+00 0.000000e+00 0.000000e+00
      outer loop
         vertex 2.000000e+01 2.000000e+01 0.000000e+00
         vertex 2.000000e+01 1.923678e+01 1.250000e+00
         vertex 2.000000e+01 1.524339e+01 1.250000e+00
      endloop
   endfacet
   facet normal 1.000000e+00 0.000000e+00 0.000000e+00
      outer loop
         vertex 2.000000e+01 9.583333e+00 1.875000e+01
         vertex 2.000000e+01 0.000000e+00 2.000000e+01
         vertex 2.000000e+01 5.589942e+00 1.875000e+01
      endloop
   endfacet
   facet normal 1.000000e+00 0.000000e+00 0.000000e+00
      outer loop
         vertex 2.000000e+01 5.589942e+00 1.875000e+01
         vertex 2.000000e+01 0.000000e+00 2.000000e+01
         vertex 2.000000e+01 4.756608e+00 1.875000e+01
      endloop
   endfacet
   facet normal 1.000000e+00 0.000000e+00 0.000000e+00
      outer loop
         vertex 2.000000e+01 5.589942e+00 1.875000e+01
         vertex 2.000000e+01 4.756608e+00 1.875000e+01
         vertex 2.000000e+01 5.589942e+00 1.250000e+00
      endloop
   endfacet
   facet normal 1.000000e+00 0.000000e+00 0.000000e+00
      outer loop
         vertex 2.000000e+01 4.756608e+00 1.875000e+01
         vertex 2.000000e+01 4.756608e+00 1.250000e+00
         vertex 2.000000e+01 5.589942e+00 1.250000e+00
      endloop
   endfacet
   facet normal 1.000000e+00 0.000000e+00 0.000000e+00
      outer loop
         vertex 2.000000e+01 5.589942e+00 1.250000e+00
         vertex 2.000000e+01 4.756608e+00 1.250000e+00
         vertex 2.000000e+01 2.000000e+01 0.000000e+00
      endloop
   endfacet
   facet normal 1.000000e+00 -0.000000e+00 0.000000e+00
      outer loop
         vertex 2.000000e+01 5.589942e+00 1.250000e+00
         vertex 2.000000e+01 2.000000e+01 0.000000e+00
         vertex 2.000000e+01 9.583333e+00 1.250000e+00
      endloop
   endfacet
   facet normal 1.000000e+00 -0.000000e+00 0.000000e+00
      outer loop
         vertex 2.000000e+01 9.583333e+00 1.250000e+00
         vertex 2.000000e+01 2.000000e+01 0.000000e+00
         vertex 2.000000e+01 1.041667e+01 1.250000e+00
      endloop
   endfacet
   facet normal 1.000000e+00 0.000000e+00 0.000000e+00
      outer loop
         vertex 2.000000e+01 9.583333e+00 1.250000e+00
         vertex 2.000000e+01 1.041667e+01 1.250000e+00
         vertex 2.000000e+01 9.583333e+00 1.875000e+01
      endloop
   endfacet
   facet normal 1.000000e+00 -0.000000e+00 0.000000e+00
      outer loop
         vertex 2.000000e+01 9.583333e+00 1.875000e+01
         vertex 2.000000e+01 1.041667e+01 1.250000e+00
         vertex 2.000000e+01 1.041667e+01 1.875000e+01
      endloop
   endfacet
   facet normal 1.000000e+00 0.000000e+00 -0.000000e+00
      outer loop
         vertex 2.000000e+01 9.583333e+00 1.875000e+01
         vertex 2.000000e+01 1.041667e+01 1.875000e+01
         vertex 2.000000e+01 0.000000e+00 2.000000e+01
      endloop
   endfacet
   facet normal 1.000000e+00 0.000000e+00 0.000000e+00
      outer loop
         vertex 2.000000e+01 0.000000e+00 2.000000e+01
         vertex 2.000000e+01 1.041667e+01 1.875000e+01
         vertex 2.000000e+01 1.441006e+01 1.875000e+01
      endloop
   endfacet
   facet normal 1.000000e+00 0.000000e+00 0.000000e+00
      outer loop
         vertex 2.000000e+01 0.000000e+00 2.000000e+01
         vertex 2.000000e+01 1.441006e+01 1.875000e+01
         vertex 2.000000e+01 1.524339e+01 1.875000e+01
      endloop
   endfacet
   facet normal 1.000000e+00 0.000000e+00 0.000000e+00
      outer loop
         vertex 2.000000e+01 1.524339e+01 1.875000e+01
         vertex 2.000000e+01 1.441006e+01 1.875000e+01
         vertex 2.000000e+01 1.524339e+01 1.250000e+00
      endloop
   endfacet
   facet normal 0.000000e+00 0.000000e+00 -1.000000e+00
      outer loop
         vertex 0.000000e+00 2.000000e+01 0.000000e+00
         vertex 2.000000e+01 2.000000e+01 0.000000e+00
         vertex 0.000000e+00 0.000000e+00 0.000000e+00
      endloop
   endfacet
   facet normal 0.000000e+00 0.000000e+00 -1.000000e+00
      outer loop
         vertex 0.000000e+00 0.000000e+00 0.000000e+00
         vertex 2.000000e+01 2.000000e+01 0.000000e+00
         vertex 2.000000e+01 0.000000e+00 0.000000e+00
      endloop
   endfacet
   facet normal -1.000000e+00 0.000000e+00 0.000000e+00
      outer loop
         vertex 0.000000e+00 1.524339e+01 1.250000e+00
         vertex 0.000000e+00 1.923678e+01 1.250000e+00
         vertex 0.000000e+00 2.000000e+01 0.000000e+00
      endloop
   endfacet
   facet normal -1.000000e+00 0.000000e+00 0.000000e+00
      outer loop
         vertex 0.000000e+00 4.756608e+00 1.875000e+01
         vertex 0.000000e+00 7.632169e-01 1.875000e+01
         vertex 0.000000e+00 0.000000e+00 2.000000e+01
      endloop
   endfacet
   facet normal -1.000000e+00 0.000000e+00 0.000000e+00
      outer loop
         vertex 0.000000e+00 0.000000e+00 2.000000e+01
         vertex 0.000000e+00 7.632169e-01 1.875000e+01
         vertex 0.000000e+00 0.000000e+00 0.000000e+00
      endloop
   endfacet
   facet normal -1.000000e+00 0.000000e+00 0.000000e+00
      outer loop
         vertex 0.000000e+00 0.000000e+00 0.000000e+00
         vertex 0.000000e+00 7.632169e-01 1.875000e+01
         vertex 0.000000e+00 7.632169e-01 1.250000e+00
      endloop
   endfacet
   facet normal -1.000000e+00 0.000000e+00 0.000000e+00
      outer loop
         vertex 0.000000e+00 0.000000e+00 0.000000e+00
         vertex 0.000000e+00 7.632169e-01 1.250000e+00
         vertex 0.000000e+00 4.756608e+00 1.250000e+00
      endloop
   endfacet
   facet normal -1.000000e+00 0.000000e+00 0.000000e+00
      outer loop
         vertex 0.000000e+00 0.000000e+00 0.000000e+00
         vertex 0.000000e+00 1.041667e+01 1.250000e+00
         vertex 0.000000e+00 1.441006e+01 1.250000e+00
      endloop
   endfacet
   facet normal -1.000000e+00 0.000000e+00 0.000000e+00
      outer loop
         vertex 0.000000e+00 2.000000e+01 2.000000e+01
         vertex 0.000000e+00 9.583333e+00 1.875000e+01
         vertex 0.000000e+00 5.589942e+00 1.875000e+01
      endloop
   endfacet
   facet normal -1.000000e+00 0.000000e+00 -0.000000e+00
      outer loop
         vertex 0.000000e+00 1.041667e+01 1.875000e+01
         vertex 0.000000e+00 1.041667e+01 1.250000e+00
         vertex 0.000000e+00 9.583333e+00 1.250000e+00
      endloop
   endfacet
   facet normal -1.000000e+00 0.000000e+00 -0.000000e+00
      outer loop
         vertex 0.000000e+00 9.583333e+00 1.250000e+00
         vertex 0.000000e+00 1.041667e+01 1.250000e+00
         vertex 0.000000e+00 0.000000e+00 0.000000e+00
      endloop
   endfacet
   facet normal -1.000000e+00 -0.000000e+00 0.000000e+00
      outer loop
         vertex 0.000000e+00 9.583333e+00 1.250000e+00
         vertex 0.000000e+00 0.000000e+00 0.000000e+00
         vertex 0.000000e+00 5.589942e+00 1.250000e+00
      endloop
   endfacet
   facet normal -1.000000e+00 -0.000000e+00 0.000000e+00
      outer loop
         vertex 0.000000e+00 5.589942e+00 1.250000e+00
         vertex 0.000000e+00 0.000000e+00 0.000000e+00
         vertex 0.000000e+00 4.756608e+00 1.250000e+00
      endloop
   endfacet
   facet normal -1.000000e+00 0.000000e+00 0.000000e+00
      outer loop
         vertex 0.000000e+00 5.589942e+00 1.250000e+00
         vertex 0.000000e+00 4.756608e+00 1.250000e+00
         vertex 0.000000e+00 5.589942e+00 1.875000e+01
      endloop
   endfacet
   facet normal -1.000000e+00 -0.000000e+00 0.000000e+00
      outer loop
         vertex 0.000000e+00 5.589942e+00 1.875000e+01
         vertex 0.000000e+00 4.756608e+00 1.250000e+00
         vertex 0.000000e+00 4.756608e+00 1.875000e+01
      endloop
   endfacet
   facet normal -1.000000e+00 0.000000e+00 0.000000e+00
      outer loop
         vertex 0.000000e+00 5.589942e+00 1.875000e+01
         vertex 0.000000e+00 4.756608e+00 1.875000e+01
         vertex 0.000000e+00 2.000000e+01 2.000000e+01
      endloop
   endfacet
   facet normal -1.000000e+00 -0.000000e+00 0.000000e+00
      outer loop
         vertex 0.000000e+00 2.000000e+01 2.000000e+01
         vertex 0.000000e+00 4.756608e+00 1.875000e+01
         vertex 0.000000e+00 0.000000e+00 2.000000e+01
      endloop
   endfacet
   facet normal -1.000000e+00 0.000000e+00 0.000000e+00
      outer loop
         vertex 0.000000e+00 2.000000e+01 0.000000e+00
         vertex 0.000000e+00 1.923678e+01 1.250000e+00
         vertex 0.000000e+00 2.000000e+01 2.000000e+01
      endloop
   endfacet
   facet normal -1.000000e+00 0.000000e+00 0.000000e+00
      outer loop
         vertex 0.000000e+00 2.000000e+01 2.000000e+01
         vertex 0.000000e+00 1.923678e+01 1.250000e+00
         vertex 0.000000e+00 1.923678e+01 1.875000e+01
      endloop
   endfacet
   facet normal -1.000000e+00 0.000000e+00 0.000000e+00
      outer loop
         vertex 0.000000e+00 2.000000e+01 2.000000e+01
         vertex 0.000000e+00 1.923678e+01 1.875000e+01
         vertex 0.000000e+00 1.524339e+01 1.875000e+01
      endloop
   endfacet
   facet normal -1.000000e+00 0.000000e+00 0.000000e+00
      outer loop
         vertex 0.000000e+00 2.000000e+01 0.000000e+00
         vertex 0.000000e+00 0.000000e+00 0.000000e+00
         vertex 0.000000e+00 1.524339e+01 1.250000e+00
      endloop
   endfacet
   facet normal -1.000000e+00 -0.000000e+00 0.000000e+00
      outer loop
         vertex 0.000000e+00 1.524339e+01 1.250000e+00
         vertex 0.000000e+00 0.000000e+00 0.000000e+00
         vertex 0.000000e+00 1.441006e+01 1.250000e+00
      endloop
   endfacet
   facet normal -1.000000e+00 0.000000e+00 0.000000e+00
      outer loop
         vertex 0.000000e+00 1.524339e+01 1.250000e+00
         vertex 0.000000e+00 1.441006e+01 1.250000e+00
         vertex 0.000000e+00 1.524339e+01 1.875000e+01
      endloop
   endfacet
   facet normal -1.000000e+00 -0.000000e+00 0.000000e+00
      outer loop
         vertex 0.000000e+00 1.524339e+01 1.875000e+01
         vertex 0.000000e+00 1.441006e+01 1.250000e+00
         vertex 0.000000e+00 1.441006e+01 1.875000e+01
      endloop
   endfacet
   facet normal -1.000000e+00 0.000000e+00 0.000000e+00
      outer loop
         vertex 0.000000e+00 1.524339e+01 1.875000e+01
         vertex 0.000000e+00 1.441006e+01 1.875000e+01
         vertex 0.000000e+00 2.000000e+01 2.000000e+01
      endloop
   endfacet
   facet normal -1.000000e+00 0.000000e+00 0.000000e+00
      outer loop
         vertex 0.000000e+00 2.000000e+01 2.000000e+01
         vertex 0.000000e+00 1.441006e+01 1.875000e+01
         vertex 0.000000e+00 1.041667e+01 1.875000e+01
      endloop
   endfacet
   facet normal -1.000000e+00 0.000000e+00 0.000000e+00
      outer loop
         vertex 0.000000e+00 2.000000e+01 2.000000e+01
         vertex 0.000000e+00 1.041667e+01 1.875000e+01
         vertex 0.000000e+00 9.583333e+00 1.875000e+01
      endloop
   endfacet
   facet normal -1.000000e+00 0.000000e+00 0.000000e+00
      outer loop
         vertex 0.000000e+00 9.583333e+00 1.875000e+01
         vertex 0.000000e+00 1.041667e+01 1.875000e+01
         vertex 0.000000e+00 9.583333e+00 1.250000e+00
      endloop
   endfacet
   facet normal 0.000000e+00 0.000000e+00 1.000000e+00
      outer loop
         vertex 2.000000e+01 2.000000e+01 2.000000e+01
         vertex 0.000000e+00 2.000000e+01 2.000000e+01
         vertex 2.000000e+01 0.000000e+00 2.000000e+01
      endloop
   endfacet
   facet normal 0.000000e+00 0.000000e+00 1.000000e+00
      outer loop
         vertex 2.000000e+01 0.000000e+00 2.000000e+01
         vertex 0.000000e+00 2.000000e+01 2.000000e+01
         vertex 0.000000e+00 0.000000e+00 2.000000e+01
      endloop
   endfacet
   facet normal 1.000000e+00 0.000000e+00 0.000000e+00
      outer loop
         vertex 8.333339e-01 0.000000e+00 8.333339e-01
         vertex 8.333339e-01 2.000000e+01 8.333339e-01
         vertex 8.333339e-01 1.524339e+01 1.250000e+00
      endloop
   endfacet
   facet normal 1.000000e+00 -0.000000e+00 0.000000e+00
      outer loop
         vertex 8.333339e-01 1.524339e+01 1.250000e+00
         vertex 8.333339e-01 2.000000e+01 8.333339e-01
         vertex 8.333339e-01 1.923678e+01 1.250000e+00
      endloop
   endfacet
   facet normal 1.000000e+00 -0.000000e+00 0.000000e+00
      outer loop
         vertex 8.333339e-01 1.923678e+01 1.250000e+00
         vertex 8.333339e-01 2.000000e+01 8.333339e-01
         vertex 8.333339e-01 1.923678e+01 1.875000e+01
      endloop
   endfacet
   facet normal 1.000000e+00 -0.000000e+00 0.000000e+00
      outer loop
         vertex 8.333339e-01 1.923678e+01 1.875000e+01
         vertex 8.333339e-01 2.000000e+01 8.333339e-01
         vertex 8.333339e-01 2.000000e+01 1.916667e+01
      endloop
   endfacet
   facet normal 1.000000e+00 0.000000e+00 -0.000000e+00
      outer loop
         vertex 8.333339e-01 1.923678e+01 1.875000e+01
         vertex 8.333339e-01 2.000000e+01 1.916667e+01
         vertex 8.333339e-01 1.524339e+01 1.875000e+01
      endloop
   endfacet
   facet normal 1.000000e+00 0.000000e+00 0.000000e+00
      outer loop
         vertex 8.333339e-01 0.000000e+00 8.333339e-01
         vertex 8.333339e-01 7.632169e-01 1.250000e+00
         vertex 8.333339e-01 0.000000e+00 1.916667e+01
      endloop
   endfacet
   facet normal 1.000000e+00 0.000000e+00 0.000000e+00
      outer loop
         vertex 8.333339e-01 0.000000e+00 1.916667e+01
         vertex 8.333339e-01 7.632169e-01 1.250000e+00
         vertex 8.333339e-01 7.632169e-01 1.875000e+01
      endloop
   endfacet
   facet normal 1.000000e+00 0.000000e+00 0.000000e+00
      outer loop
         vertex 8.333339e-01 0.000000e+00 1.916667e+01
         vertex 8.333339e-01 7.632169e-01 1.875000e+01
         vertex 8.333339e-01 4.756608e+00 1.875000e+01
      endloop
   endfacet
   facet normal 1.000000e+00 0.000000e+00 0.000000e+00
      outer loop
         vertex 8.333339e-01 0.000000e+00 1.916667e+01
         vertex 8.333339e-01 1.041667e+01 1.875000e+01
         vertex 8.333339e-01 1.441006e+01 1.875000e+01
      endloop
   endfacet
   facet normal 1.000000e+00 0.000000e+00 -0.000000e+00
      outer loop
         vertex 8.333339e-01 1.041667e+01 1.250000e+00
         vertex 8.333339e-01 1.041667e+01 1.875000e+01
         vertex 8.333339e-01 9.583333e+00 1.875000e+01
      endloop
   endfacet
   facet normal 1.000000e+00 0.000000e+00 -0.000000e+00
      outer loop
         vertex 8.333339e-01 9.583333e+00 1.875000e+01
         vertex 8.333339e-01 1.041667e+01 1.875000e+01
         vertex 8.333339e-01 0.000000e+00 1.916667e+01
      endloop
   endfacet
   facet normal 1.000000e+00 0.000000e+00 0.000000e+00
      outer loop
         vertex 8.333339e-01 9.583333e+00 1.875000e+01
         vertex 8.333339e-01 0.000000e+00 1.916667e+01
         vertex 8.333339e-01 5.589942e+00 1.875000e+01
      endloop
   endfacet
   facet normal 1.000000e+00 0.000000e+00 0.000000e+00
      outer loop
         vertex 8.333339e-01 5.589942e+00 1.875000e+01
         vertex 8.333339e-01 0.000000e+00 1.916667e+01
         vertex 8.333339e-01 4.756608e+00 1.875000e+01
      endloop
   endfacet
   facet normal 1.000000e+00 0.000000e+00 0.000000e+00
      outer loop
         vertex 8.333339e-01 5.589942e+00 1.875000e+01
         vertex 8.333339e-01 4.756608e+00 1.875000e+01
         vertex 8.333339e-01 5.589942e+00 1.250000e+00
      endloop
   endfacet
   facet normal 1.000000e+00 0.000000e+00 0.000000e+00
      outer loop
         vertex 8.333339e-01 5.589942e+00 1.250000e+00
         vertex 8.333339e-01 4.756608e+00 1.875000e+01
         vertex 8.333339e-01 4.756608e+00 1.250000e+00
      endloop
   endfacet
   facet normal 1.000000e+00 0.000000e+00 0.000000e+00
      outer loop
         vertex 8.333339e-01 9.583333e+00 1.250000e+00
         vertex 8.333339e-01 5.589942e+00 1.250000e+00
         vertex 8.333339e-01 0.000000e+00 8.333339e-01
      endloop
   endfacet
   facet normal 1.000000e+00 0.000000e+00 0.000000e+00
      outer loop
         vertex 8.333339e-01 0.000000e+00 8.333339e-01
         vertex 8.333339e-01 5.589942e+00 1.250000e+00
         vertex 8.333339e-01 4.756608e+00 1.250000e+00
      endloop
   endfacet
   facet normal 1.000000e+00 0.000000e+00 0.000000e+00
      outer loop
         vertex 8.333339e-01 0.000000e+00 8.333339e-01
         vertex 8.333339e-01 4.756608e+00 1.250000e+00
         vertex 8.333339e-01 7.632169e-01 1.250000e+00
      endloop
   endfacet
   facet normal 1.000000e+00 0.000000e+00 0.000000e+00
      outer loop
         vertex 8.333339e-01 9.583333e+00 1.875000e+01
         vertex 8.333339e-01 9.583333e+00 1.250000e+00
         vertex 8.333339e-01 1.041667e+01 1.250000e+00
      endloop
   endfacet
   facet normal 1.000000e+00 0.000000e+00 0.000000e+00
      outer loop
         vertex 8.333339e-01 1.041667e+01 1.250000e+00
         vertex 8.333339e-01 9.583333e+00 1.250000e+00
         vertex 8.333339e-01 0.000000e+00 8.333339e-01
      endloop
   endfacet
   facet normal 1.000000e+00 -0.000000e+00 0.000000e+00
      outer loop
         vertex 8.333339e-01 1.041667e+01 1.250000e+00
         vertex 8.333339e-01 0.000000e+00 8.333339e-01
         vertex 8.333339e-01 1.441006e+01 1.250000e+00
      endloop
   endfacet
   facet normal 1.000000e+00 -0.000000e+00 0.000000e+00
      outer loop
         vertex 8.333339e-01 1.441006e+01 1.250000e+00
         vertex 8.333339e-01 0.000000e+00 8.333339e-01
         vertex 8.333339e-01 1.524339e+01 1.250000e+00
      endloop
   endfacet
   facet normal 1.000000e+00 0.000000e+00 0.000000e+00
      outer loop
         vertex 8.333339e-01 1.441006e+01 1.250000e+00
         vertex 8.333339e-01 1.524339e+01 1.250000e+00
         vertex 8.333339e-01 1.441006e+01 1.875000e+01
      endloop
   endfacet
   facet normal 1.000000e+00 -0.000000e+00 0.000000e+00
      outer loop
         vertex 8.333339e-01 1.441006e+01 1.875000e+01
         vertex 8.333339e-01 1.524339e+01 1.250000e+00
         vertex 8.333339e-01 1.524339e+01 1.875000e+01
      endloop
   endfacet
   facet normal 1.000000e+00 0.000000e+00 -0.000000e+00
      outer loop
         vertex 8.333339e-01 1.441006e+01 1.875000e+01
         vertex 8.333339e-01 1.524339e+01 1.875000e+01
         vertex 8.333339e-01 0.000000e+00 1.916667e+01
      endloop
   endfacet
   facet normal 1.000000e+00 -0.000000e+00 0.000000e+00
      outer loop
         vertex 8.333339e-01 0.000000e+00 1.916667e+01
         vertex 8.333339e-01 1.524339e+01 1.875000e+01
         vertex 8.333339e-01 2.000000e+01 1.916667e+01
      endloop
   endfacet
   facet normal 0.000000e+00 0.000000e+00 -1.000000e+00
      outer loop
         vertex 8.333339e-01 2.000000e+01 1.916667e+01
         vertex 1.916667e+01 2.000000e+01 1.916667e+01
         vertex 8.333339e-01 0.000000e+00 1.916667e+01
      endloop
   endfacet
   facet normal 0.000000e+00 0.000000e+00 -1.000000e+00
      outer loop
         vertex 8.333339e-01 0.000000e+00 1.916667e+01
         vertex 1.916667e+01 2.000000e+01 1.916667e+01
         vertex 1.916667e+01 0.000000e+00 1.916667e+01
      endloop
   endfacet
   facet normal -1.000000e+00 0.000000e+00 0.000000e+00
      outer loop
         vertex 1.916667e+01 0.000000e+00 8.333339e-01
         vertex 1.916667e+01 1.524339e+01 1.250000e+00
         vertex 1.916667e+01 2.000000e+01 8.333339e-01
      endloop
   endfacet
   facet normal -1.000000e+00 0.000000e+00 0.000000e+00
      outer loop
         vertex 1.916667e+01 2.000000e+01 8.333339e-01
         vertex 1.916667e+01 1.524339e+01 1.250000e+00
         vertex 1.916667e+01 1.923678e+01 1.250000e+00
      endloop
   endfacet
   facet normal -1.000000e+00 0.000000e+00 0.000000e+00
      outer loop
         vertex 1.916667e+01 2.000000e+01 8.333339e-01
         vertex 1.916667e+01 1.923678e+01 1.250000e+00
         vertex 1.916667e+01 2.000000e+01 1.916667e+01
      endloop
   endfacet
   facet normal -1.000000e+00 0.000000e+00 0.000000e+00
      outer loop
         vertex 1.916667e+01 2.000000e+01 1.916667e+01
         vertex 1.916667e+01 1.923678e+01 1.250000e+00
         vertex 1.916667e+01 1.923678e+01 1.875000e+01
      endloop
   endfacet
   facet normal -1.000000e+00 0.000000e+00 0.000000e+00
      outer loop
         vertex 1.916667e+01 2.000000e+01 1.916667e+01
         vertex 1.916667e+01 1.923678e+01 1.875000e+01
         vertex 1.916667e+01 1.524339e+01 1.875000e+01
      endloop
   endfacet
   facet normal -1.000000e+00 -0.000000e+00 0.000000e+00
      outer loop
         vertex 1.916667e+01 2.000000e+01 1.916667e+01
         vertex 1.916667e+01 4.756608e+00 1.875000e+01
         vertex 1.916667e+01 0.000000e+00 1.916667e+01
      endloop
   endfacet
   facet normal -1.000000e+00 0.000000e+00 0.000000e+00
      outer loop
         vertex 1.916667e+01 0.000000e+00 1.916667e+01
         vertex 1.916667e+01 4.756608e+00 1.875000e+01
         vertex 1.916667e+01 7.632169e-01 1.875000e+01
      endloop
   endfacet
   facet normal -1.000000e+00 0.000000e+00 0.000000e+00
      outer loop
         vertex 1.916667e+01 0.000000e+00 1.916667e+01
         vertex 1.916667e+01 7.632169e-01 1.875000e+01
         vertex 1.916667e+01 0.000000e+00 8.333339e-01
      endloop
   endfacet
   facet normal -1.000000e+00 0.000000e+00 0.000000e+00
      outer loop
         vertex 1.916667e+01 1.041667e+01 1.875000e+01
         vertex 1.916667e+01 2.000000e+01 1.916667e+01
         vertex 1.916667e+01 1.441006e+01 1.875000e+01
      endloop
   endfacet
   facet normal -1.000000e+00 0.000000e+00 0.000000e+00
      outer loop
         vertex 1.916667e+01 1.441006e+01 1.875000e+01
         vertex 1.916667e+01 2.000000e+01 1.916667e+01
         vertex 1.916667e+01 1.524339e+01 1.875000e+01
      endloop
   endfacet
   facet normal -1.000000e+00 0.000000e+00 0.000000e+00
      outer loop
         vertex 1.916667e+01 1.441006e+01 1.875000e+01
         vertex 1.916667e+01 1.524339e+01 1.875000e+01
         vertex 1.916667e+01 1.441006e+01 1.250000e+00
      endloop
   endfacet
   facet normal -1.000000e+00 0.000000e+00 -0.000000e+00
      outer loop
         vertex 1.916667e+01 5.589942e+00 1.250000e+00
         vertex 1.916667e+01 9.583333e+00 1.250000e+00
         vertex 1.916667e+01 0.000000e+00 8.333339e-01
      endloop
   endfacet
   facet normal -1.000000e+00 0.000000e+00 -0.000000e+00
      outer loop
         vertex 1.916667e+01 5.589942e+00 1.875000e+01
         vertex 1.916667e+01 5.589942e+00 1.250000e+00
         vertex 1.916667e+01 4.756608e+00 1.250000e+00
      endloop
   endfacet
   facet normal -1.000000e+00 0.000000e+00 -0.000000e+00
      outer loop
         vertex 1.916667e+01 4.756608e+00 1.250000e+00
         vertex 1.916667e+01 5.589942e+00 1.250000e+00
         vertex 1.916667e+01 0.000000e+00 8.333339e-01
      endloop
   endfacet
   facet normal -1.000000e+00 -0.000000e+00 0.000000e+00
      outer loop
         vertex 1.916667e+01 4.756608e+00 1.250000e+00
         vertex 1.916667e+01 0.000000e+00 8.333339e-01
         vertex 1.916667e+01 7.632169e-01 1.250000e+00
      endloop
   endfacet
   facet normal -1.000000e+00 -0.000000e+00 0.000000e+00
      outer loop
         vertex 1.916667e+01 7.632169e-01 1.250000e+00
         vertex 1.916667e+01 0.000000e+00 8.333339e-01
         vertex 1.916667e+01 7.632169e-01 1.875000e+01
      endloop
   endfacet
   facet normal -1.000000e+00 0.000000e+00 -0.000000e+00
      outer loop
         vertex 1.916667e+01 1.524339e+01 1.875000e+01
         vertex 1.916667e+01 1.524339e+01 1.250000e+00
         vertex 1.916667e+01 1.441006e+01 1.250000e+00
      endloop
   endfacet
   facet normal -1.000000e+00 0.000000e+00 -0.000000e+00
      outer loop
         vertex 1.916667e+01 1.441006e+01 1.250000e+00
         vertex 1.916667e+01 1.524339e+01 1.250000e+00
         vertex 1.916667e+01 0.000000e+00 8.333339e-01
      endloop
   endfacet
   facet normal -1.000000e+00 -0.000000e+00 0.000000e+00
      outer loop
         vertex 1.916667e+01 1.441006e+01 1.250000e+00
         vertex 1.916667e+01 0.000000e+00 8.333339e-01
         vertex 1.916667e+01 1.041667e+01 1.250000e+00
      endloop
   endfacet
   facet normal -1.000000e+00 -0.000000e+00 0.000000e+00
      outer loop
         vertex 1.916667e+01 1.041667e+01 1.250000e+00
         vertex 1.916667e+01 0.000000e+00 8.333339e-01
         vertex 1.916667e+01 9.583333e+00 1.250000e+00
      endloop
   endfacet
   facet normal -1.000000e+00 0.000000e+00 0.000000e+00
      outer loop
         vertex 1.916667e+01 1.041667e+01 1.250000e+00
         vertex 1.916667e+01 9.583333e+00 1.250000e+00
         vertex 1.916667e+01 1.041667e+01 1.875000e+01
      endloop
   endfacet
   facet normal -1.000000e+00 -0.000000e+00 0.000000e+00
      outer loop
         vertex 1.916667e+01 1.041667e+01 1.875000e+01
         vertex 1.916667e+01 9.583333e+00 1.250000e+00
         vertex 1.916667e+01 9.583333e+00 1.875000e+01
      endloop
   endfacet
   facet normal -1.000000e+00 0.000000e+00 0.000000e+00
      outer loop
         vertex 1.916667e+01 1.041667e+01 1.875000e+01
         vertex 1.916667e+01 9.583333e+00 1.875000e+01
         vertex 1.916667e+01 2.000000e+01 1.916667e+01
      endloop
   endfacet
   facet normal -1.000000e+00 0.000000e+00 0.000000e+00
      outer loop
         vertex 1.916667e+01 2.000000e+01 1.916667e+01
         vertex 1.916667e+01 9.583333e+00 1.875000e+01
         vertex 1.916667e+01 5.589942e+00 1.875000e+01
      endloop
   endfacet
   facet normal -1.000000e+00 0.000000e+00 0.000000e+00
      outer loop
         vertex 1.916667e+01 2.000000e+01 1.916667e+01
         vertex 1.916667e+01 5.589942e+00 1.875000e+01
         vertex 1.916667e+01 4.756608e+00 1.875000e+01
      endloop
   endfacet
   facet normal -1.000000e+00 0.000000e+00 0.000000e+00
      outer loop
         vertex 1.916667e+01 4.756608e+00 1.875000e+01
         vertex 1.916667e+01 5.589942e+00 1.875000e+01
         vertex 1.916667e+01 4.756608e+00 1.250000e+00
      endloop
   endfacet
   facet normal 0.000000e+00 0.000000e+00 1.000000e+00
      outer loop
         vertex 1.916667e+01 2.000000e+01 8.333339e-01
         vertex 8.333339e-01 2.000000e+01 8.333339e-01
         vertex 1.916667e+01 0.000000e+00 8.333339e-01
      endloop
   endfacet
   facet normal 0.000000e+00 0.000000e+00 1.000000e+00
      outer loop
         vertex 1.916667e+01 0.000000e+00 8.333339e-01
         vertex 8.333339e-01 2.000000e+01 8.333339e-01
         vertex 8.333339e-01 0.000000e+00 8.333339e-01
      endloop
   endfacet
   facet normal 0.000000e+00 1.000000e+00 0.000000e+00
      outer loop
         vertex 2.000000e+01 7.632169e-01 1.875000e+01
         vertex 2.000000e+01 7.632169e-01 1.250000e+00
         vertex 1.916667e+01 7.632169e-01 1.875000e+01
      endloop
   endfacet
   facet normal 0.000000e+00 1.000000e+00 0.000000e+00
      outer loop
         vertex 1.916667e+01 7.632169e-01 1.875000e+01
         vertex 2.000000e+01 7.632169e-01 1.250000e+00
         vertex 1.916667e+01 7.632169e-01 1.250000e+00
      endloop
   endfacet
   facet normal -0.000000e+00 -0.000000e+00 -1.000000e+00
      outer loop
         vertex 2.000000e+01 4.756608e+00 1.875000e+01
         vertex 2.000000e+01 7.632169e-01 1.875000e+01
         vertex 1.916667e+01 4.756608e+00 1.875000e+01
      endloop
   endfacet
   facet normal 0.000000e+00 0.000000e+00 -1.000000e+00
      outer loop
         vertex 1.916667e+01 4.756608e+00 1.875000e+01
         vertex 2.000000e+01 7.632169e-01 1.875000e+01
         vertex 1.916667e+01 7.632169e-01 1.875000e+01
      endloop
   endfacet
   facet normal 0.000000e+00 -1.000000e+00 0.000000e+00
      outer loop
         vertex 2.000000e+01 4.756608e+00 1.250000e+00
         vertex 2.000000e+01 4.756608e+00 1.875000e+01
         vertex 1.916667e+01 4.756608e+00 1.250000e+00
      endloop
   endfacet
   facet normal 0.000000e+00 -1.000000e+00 0.000000e+00
      outer loop
         vertex 1.916667e+01 4.756608e+00 1.250000e+00
         vertex 2.000000e+01 4.756608e+00 1.875000e+01
         vertex 1.916667e+01 4.756608e+00 1.875000e+01
      endloop
   endfacet
   facet normal 0.000000e+00 -0.000000e+00 1.000000e+00
      outer loop
         vertex 2.000000e+01 7.632169e-01 1.250000e+00
         vertex 2.000000e+01 4.756608e+00 1.250000e+00
         vertex 1.916667e+01 7.632169e-01 1.250000e+00
      endloop
   endfacet
   facet normal 0.000000e+00 0.000000e+00 1.000000e+00
      outer loop
         vertex 1.916667e+01 7.632169e-01 1.250000e+00
         vertex 2.000000e+01 4.756608e+00 1.250000e+00
         vertex 1.916667e+01 4.756608e+00 1.250000e+00
      endloop
   endfacet
   facet normal 0.000000e+00 1.000000e+00 0.000000e+00
      outer loop
         vertex 2.000000e+01 5.589942e+00 1.875000e+01
         vertex 2.000000e+01 5.589942e+00 1.250000e+00
         vertex 1.916667e+01 5.589942e+00 1.875000e+01
      endloop
   endfacet
   facet normal 0.000000e+00 1.000000e+00 0.000000e+00
      outer loop
         vertex 1.916667e+01 5.589942e+00 1.875000e+01
         vertex 2.000000e+01 5.589942e+00 1.250000e+00
         vertex 1.916667e+01 5.589942e+00 1.250000e+00
      endloop
   endfacet
   facet normal -0.000000e+00 -0.000000e+00 -1.000000e+00
      outer loop
         vertex 2.000000e+01 9.583333e+00 1.875000e+01
         vertex 2.000000e+01 5.589942e+00 1.875000e+01
         vertex 1.916667e+01 9.583333e+00 1.875000e+01
      endloop
   endfacet
   facet normal 0.000000e+00 0.000000e+00 -1.000000e+00
      outer loop
         vertex 1.916667e+01 9.583333e+00 1.875000e+01
         vertex 2.000000e+01 5.589942e+00 1.875000e+01
         vertex 1.916667e+01 5.589942e+00 1.875000e+01
      endloop
   endfacet
   facet normal 0.000000e+00 -1.000000e+00 0.000000e+00
      outer loop
         vertex 2.000000e+01 9.583333e+00 1.250000e+00
         vertex 2.000000e+01 9.583333e+00 1.875000e+01
         vertex 1.916667e+01 9.583333e+00 1.250000e+00
      endloop
   endfacet
   facet normal 0.000000e+00 -1.000000e+00 0.000000e+00
      outer loop
         vertex 1.916667e+01 9.583333e+00 1.250000e+00
         vertex 2.000000e+01 9.583333e+00 1.875000e+01
         vertex 1.916667e+01 9.583333e+00 1.875000e+01
      endloop
   endfacet
   facet normal 0.000000e+00 -0.000000e+00 1.000000e+00
      outer loop
         vertex 2.000000e+01 5.589942e+00 1.250000e+00
         vertex 2.000000e+01 9.583333e+00 1.250000e+00
         vertex 1.916667e+01 5.589942e+00 1.250000e+00
      endloop
   endfacet
   facet normal 0.000000e+00 0.000000e+00 1.000000e+00
      outer loop
         vertex 1.916667e+01 5.589942e+00 1.250000e+00
         vertex 2.000000e+01 9.583333e+00 1.250000e+00
         vertex 1.916667e+01 9.583333e+00 1.250000e+00
      endloop
   endfacet
   facet normal 0.000000e+00 1.000000e+00 0.000000e+00
      outer loop
         vertex 2.000000e+01 1.041667e+01 1.875000e+01
         vertex 2.000000e+01 1.041667e+01 1.250000e+00
         vertex 1.916667e+01 1.041667e+01 1.875000e+01
      endloop
   endfacet
   facet normal 0.000000e+00 1.000000e+00 0.000000e+00
      outer loop
         vertex 1.916667e+01 1.041667e+01 1.875000e+01
         vertex 2.000000e+01 1.041667e+01 1.250000e+00
         vertex 1.916667e+01 1.041667e+01 1.250000e+00
      endloop
   endfacet
   facet normal -0.000000e+00 -0.000000e+00 -1.000000e+00
      outer loop
         vertex 2.000000e+01 1.441006e+01 1.875000e+01
         vertex 2.000000e+01 1.041667e+01 1.875000e+01
         vertex 1.916667e+01 1.441006e+01 1.875000e+01
      endloop
   endfacet
   facet normal 0.000000e+00 0.000000e+00 -1.000000e+00
      outer loop
         vertex 1.916667e+01 1.441006e+01 1.875000e+01
         vertex 2.000000e+01 1.041667e+01 1.875000e+01
         vertex 1.916667e+01 1.041667e+01 1.875000e+01
      endloop
   endfacet
   facet normal 0.000000e+00 -1.000000e+00 0.000000e+00
      outer loop
         vertex 2.000000e+01 1.441006e+01 1.250000e+00
         vertex 2.000000e+01 1.441006e+01 1.875000e+01
         vertex 1.916667e+01 1.441006e+01 1.250000e+00
      endloop
   endfacet
   facet normal 0.000000e+00 -1.000000e+00 0.000000e+00
      outer loop
         vertex 1.916667e+01 1.441006e+01 1.250000e+00
         vertex 2.000000e+01 1.441006e+01 1.875000e+01
         vertex 1.916667e+01 1.441006e+01 1.875000e+01
      endloop
   endfacet
   facet normal 0.000000e+00 -0.000000e+00 1.000000e+00
      outer loop
         vertex 2.000000e+01 1.041667e+01 1.250000e+00
         vertex 2.000000e+01 1.441006e+01 1.250000e+00
         vertex 1.916667e+01 1.041667e+01 1.250000e+00
      endloop
   endfacet
   facet normal 0.000000e+00 0.000000e+00 1.000000e+00
      outer loop
         vertex 1.916667e+01 1.041667e+01 1.250000e+00
         vertex 2.000000e+01 1.441006e+01 1.250000e+00
         vertex 1.916667e+01 1.441006e+01 1.250000e+00
      endloop
   endfacet
   facet normal 0.000000e+00 1.000000e+00 0.000000e+00
      outer loop
         vertex 2.000000e+01 1.524339e+01 1.875000e+01
         vertex 2.000000e+01 1.524339e+01 1.250000e+00
         vertex 1.916667e+01 1.524339e+01 1.875000e+01
      endloop
   endfacet
   facet normal 0.000000e+00 1.000000e+00 0.000000e+00
      outer loop
         vertex 1.916667e+01 1.524339e+01 1.875000e+01
         vertex 2.000000e+01 1.524339e+01 1.250000e+00
         vertex 1.916667e+01 1.524339e+01 1.250000e+00
      endloop
   endfacet
   facet normal -0.000000e+00 -0.000000e+00 -1.000000e+00
      outer loop
         vertex 2.000000e+01 1.923678e+01 1.875000e+01
         vertex 2.000000e+01 1.524339e+01 1.875000e+01
         vertex 1.916667e+01 1.923678e+01 1.875000e+01
      endloop
   endfacet
   facet normal 0.000000e+00 0.000000e+00 -1.000000e+00
      outer loop
         vertex 1.916667e+01 1.923678e+01 1.875000e+01
         vertex 2.000000e+01 1.524339e+01 1.875000e+01
         vertex 1.916667e+01 1.524339e+01 1.875000e+01
      endloop
   endfacet
   facet normal 0.000000e+00 -1.000000e+00 0.000000e+00
      outer loop
         vertex 2.000000e+01 1.923678e+01 1.250000e+00
         vertex 2.000000e+01 1.923678e+01 1.875000e+01
         vertex 1.916667e+01 1.923678e+01 1.250000e+00
      endloop
   endfacet
   facet normal 0.000000e+00 -1.000000e+00 0.000000e+00
      outer loop
         vertex 1.916667e+01 1.923678e+01 1.250000e+00
         vertex 2.000000e+01 1.923678e+01 1.875000e+01
         vertex 1.916667e+01 1.923678e+01 1.875000e+01
      endloop
   endfacet
   facet normal 0.000000e+00 -0.000000e+00 1.000000e+00
      outer loop
         vertex 2.000000e+01 1.524339e+01 1.250000e+00
         vertex 2.000000e+01 1.923678e+01 1.250000e+00
         vertex 1.916667e+01 1.524339e+01 1.250000e+00
      endloop
   endfacet
   facet normal 0.000000e+00 0.000000e+00 1.000000e+00
      outer loop
         vertex 1.916667e+01 1.524339e+01 1.250000e+00
         vertex 2.000000e+01 1.923678e+01 1.250000e+00
         vertex 1.916667e+01 1.923678e+01 1.250000e+00
      endloop
   endfacet
   facet normal 0.000000e+00 0.000000e+00 1.000000e+00
      outer loop
         vertex 8.333339e-01 4.756608e+00 1.250000e+00
         vertex 0.000000e+00 4.756608e+00 1.250000e+00
         vertex 8.333339e-01 7.632169e-01 1.250000e+00
      endloop
   endfacet
   facet normal 0.000000e+00 0.000000e+00 1.000000e+00
      outer loop
         vertex 8.333339e-01 7.632169e-01 1.250000e+00
         vertex 0.000000e+00 4.756608e+00 1.250000e+00
         vertex 0.000000e+00 7.632169e-01 1.250000e+00
      endloop
   endfacet
   facet normal -0.000000e+00 -1.000000e+00 -0.000000e+00
      outer loop
         vertex 8.333339e-01 4.756608e+00 1.875000e+01
         vertex 0.000000e+00 4.756608e+00 1.875000e+01
         vertex 8.333339e-01 4.756608e+00 1.250000e+00
      endloop
   endfacet
   facet normal 0.000000e+00 -1.000000e+00 0.000000e+00
      outer loop
         vertex 8.333339e-01 4.756608e+00 1.250000e+00
         vertex 0.000000e+00 4.756608e+00 1.875000e+01
         vertex 0.000000e+00 4.756608e+00 1.250000e+00
      endloop
   endfacet
   facet normal 0.000000e+00 0.000000e+00 -1.000000e+00
      outer loop
         vertex 8.333339e-01 7.632169e-01 1.875000e+01
         vertex 0.000000e+00 7.632169e-01 1.875000e+01
         vertex 8.333339e-01 4.756608e+00 1.875000e+01
      endloop
   endfacet
   facet normal -0.000000e+00 0.000000e+00 -1.000000e+00
      outer loop
         vertex 8.333339e-01 4.756608e+00 1.875000e+01
         vertex 0.000000e+00 7.632169e-01 1.875000e+01
         vertex 0.000000e+00 4.756608e+00 1.875000e+01
      endloop
   endfacet
   facet normal 0.000000e+00 1.000000e+00 -0.000000e+00
      outer loop
         vertex 8.333339e-01 7.632169e-01 1.250000e+00
         vertex 0.000000e+00 7.632169e-01 1.250000e+00
         vertex 8.333339e-01 7.632169e-01 1.875000e+01
      endloop
   endfacet
   facet normal 0.000000e+00 1.000000e+00 0.000000e+00
      outer loop
         vertex 8.333339e-01 7.632169e-01 1.875000e+01
         vertex 0.000000e+00 7.632169e-01 1.250000e+00
         vertex 0.000000e+00 7.632169e-01 1.875000e+01
      endloop
   endfacet
   facet normal 0.000000e+00 0.000000e+00 1.000000e+00
      outer loop
         vertex 8.333339e-01 9.583333e+00 1.250000e+00
         vertex 0.000000e+00 9.583333e+00 1.250000e+00
         vertex 8.333339e-01 5.589942e+00 1.250000e+00
      endloop
   endfacet
   facet normal 0.000000e+00 0.000000e+00 1.000000e+00
      outer loop
         vertex 8.333339e-01 5.589942e+00 1.250000e+00
         vertex 0.000000e+00 9.583333e+00 1.250000e+00
         vertex 0.000000e+00 5.589942e+00 1.250000e+00
      endloop
   endfacet
   facet normal -0.000000e+00 -1.000000e+00 -0.000000e+00
      outer loop
         vertex 8.333339e-01 9.583333e+00 1.875000e+01
         vertex 0.000000e+00 9.583333e+00 1.875000e+01
         vertex 8.333339e-01 9.583333e+00 1.250000e+00
      endloop
   endfacet
   facet normal 0.000000e+00 -1.000000e+00 0.000000e+00
      outer loop
         vertex 8.333339e-01 9.583333e+00 1.250000e+00
         vertex 0.000000e+00 9.583333e+00 1.875000e+01
         vertex 0.000000e+00 9.583333e+00 1.250000e+00
      endloop
   endfacet
   facet normal 0.000000e+00 0.000000e+00 -1.000000e+00
      outer loop
         vertex 8.333339e-01 5.589942e+00 1.875000e+01
         vertex 0.000000e+00 5.589942e+00 1.875000e+01
         vertex 8.333339e-01 9.583333e+00 1.875000e+01
      endloop
   endfacet
   facet normal -0.000000e+00 0.000000e+00 -1.000000e+00
      outer loop
         vertex 8.333339e-01 9.583333e+00 1.875000e+01
         vertex 0.000000e+00 5.589942e+00 1.875000e+01
         vertex 0.000000e+00 9.583333e+00 1.875000e+01
      endloop
   endfacet
   facet normal 0.000000e+00 1.000000e+00 -0.000000e+00
      outer loop
         vertex 8.333339e-01 5.589942e+00 1.250000e+00
         vertex 0.000000e+00 5.589942e+00 1.250000e+00
         vertex 8.333339e-01 5.589942e+00 1.875000e+01
      endloop
   endfacet
   facet normal 0.000000e+00 1.000000e+00 0.000000e+00
      outer loop
         vertex 8.333339e-01 5.589942e+00 1.875000e+01
         vertex 0.000000e+00 5.589942e+00 1.250000e+00
         vertex 0.000000e+00 5.589942e+00 1.875000e+01
      endloop
   endfacet
   facet normal 0.000000e+00 0.000000e+00 1.000000e+00
      outer loop
         vertex 8.333339e-01 1.441006e+01 1.250000e+00
         vertex 0.000000e+00 1.441006e+01 1.250000e+00
         vertex 8.333339e-01 1.041667e+01 1.250000e+00
      endloop
   endfacet
   facet normal 0.000000e+00 0.000000e+00 1.000000e+00
      outer loop
         vertex 8.333339e-01 1.041667e+01 1.250000e+00
         vertex 0.000000e+00 1.441006e+01 1.250000e+00
         vertex 0.000000e+00 1.041667e+01 1.250000e+00
      endloop
   endfacet
   facet normal -0.000000e+00 -1.000000e+00 -0.000000e+00
      outer loop
         vertex 8.333339e-01 1.441006e+01 1.875000e+01
         vertex 0.000000e+00 1.441006e+01 1.875000e+01
         vertex 8.333339e-01 1.441006e+01 1.250000e+00
      endloop
   endfacet
   facet normal 0.000000e+00 -1.000000e+00 0.000000e+00
      outer loop
         vertex 8.333339e-01 1.441006e+01 1.250000e+00
         vertex 0.000000e+00 1.441006e+01 1.875000e+01
         vertex 0.000000e+00 1.441006e+01 1.250000e+00
      endloop
   endfacet
   facet normal 0.000000e+00 0.000000e+00 -1.000000e+00
      outer loop
         vertex 8.333339e-01 1.041667e+01 1.875000e+01
         vertex 0.000000e+00 1.041667e+01 1.875000e+01
         vertex 8.333339e-01 1.441006e+01 1.875000e+01
      endloop
   endfacet
   facet normal -0.000000e+00 0.000000e+00 -1.000000e+00
      outer loop
         vertex 8.333339e-01 1.441006e+01 1.875000e+01
         vertex 0.000000e+00 1.041667e+01 1.875000e+01
         vertex 0.000000e+00 1.441006e+01 1.875000e+01
      endloop
   endfacet
   facet normal 0.000000e+00 1.000000e+00 -0.000000e+00
      outer loop
         vertex 8.333339e-01 1.041667e+01 1.250000e+00
         vertex 0.000000e+00 1.041667e+01 1.250000e+00
         vertex 8.333339e-01 1.041667e+01 1.875000e+01
      endloop
   endfacet
   facet normal 0.000000e+00 1.000000e+00 0.000000e+00
      outer loop
         vertex 8.333339e-01 1.041667e+01 1.875000e+01
         vertex 0.000000e+00 1.041667e+01 1.250000e+00
         vertex 0.000000e+00 1.041667e+01 1.875000e+01
      endloop
   endfacet
   facet normal 0.000000e+00 0.000000e+00 1.000000e+00
      outer loop
         vertex 8.333339e-01 1.923678e+01 1.250000e+00
         vertex 0.000000e+00 1.923678e+01 1.250000e+00
         vertex 8.333339e-01 1.524339e+01 1.250000e+00
      endloop
   endfacet
   facet normal 0.000000e+00 0.000000e+00 1.000000e+00
      outer loop
         vertex 8.333339e-01 1.524339e+01 1.250000e+00
         vertex 0.000000e+00 1.923678e+01 1.250000e+00
         vertex 0.000000e+00 1.524339e+01 1.250000e+00
      endloop
   endfacet
   facet normal -0.000000e+00 -1.000000e+00 -0.000000e+00
      outer loop
         vertex 8.333339e-01 1.923678e+01 1.875000e+01
         vertex 0.000000e+00 1.923678e+01 1.875000e+01
         vertex 8.333339e-01 1.923678e+01 1.250000e+00
      endloop
   endfacet
   facet normal 0.000000e+00 -1.000000e+00 0.000000e+00
      outer loop
         vertex 8.333339e-01 1.923678e+01 1.250000e+00
         vertex 0.000000e+00 1.923678e+01 1.875000e+01
         vertex 0.000000e+00 1.923678e+01 1.250000e+00
      endloop
   endfacet
   facet normal 0.000000e+00 0.000000e+00 -1.000000e+00
      outer loop
         vertex 8.333339e-01 1.524339e+01 1.875000e+01
         vertex 0.000000e+00 1.524339e+01 1.875000e+01
         vertex 8.333339e-01 1.923678e+01 1.875000e+01
      endloop
   endfacet
   facet normal -0.000000e+00 0.000000e+00 -1.000000e+00
      outer loop
         vertex 8.333339e-01 1.923678e+01 1.875000e+01
         vertex 0.000000e+00 1.524339e+01 1.875000e+01
         vertex 0.000000e+00 1.923678e+01 1.875000e+01
      endloop
   endfacet
   facet normal 0.000000e+00 1.000000e+00 -0.000000e+00
      outer loop
         vertex 8.333339e-01 1.524339e+01 1.250000e+00
         vertex 0.000000e+00 1.524339e+01 1.250000e+00
         vertex 8.333339e-01 1.524339e+01 1.875000e+01
      endloop
   endfacet
   facet normal 0.000000e+00 1.000000e+00 0.000000e+00
      outer loop
         vertex 8.333339e-01 1.524339e+01 1.875000e+01
         vertex 0.000000e+00 1.524339e+01 1.250000e+00
         vertex 0.000000e+00 1.524339e+01 1.875000e+01
      endloop
   endfacet
endsolid